<?xml version="1.0" encoding="utf-8" ?>
<svg xmlns="http://www.w3.org/2000/svg" xmlns:xlink="http://www.w3.org/1999/xlink" style="fill:#fff" width="512" height="512">
	<path transform="scale(0.8 0.8)" d="M211.018 503.541C188.187 496.859 164.682 487.788 146.143 472.458C143.742 470.472 140.206 467.45 139.296 464.334C137.309 457.533 144.623 452.822 150.445 455.66C154.026 457.405 157.065 460.715 160.363 462.989C166.886 467.488 173.764 471.557 180.661 475.453C174.503 455.326 161.975 442.249 145.255 430.447L109.543 407.659C90.1408 395.358 71.1329 381.405 69.4887 356.236C67.1083 319.798 89.217 279.503 112.541 252.645C123.218 240.351 136.213 230.553 150.419 222.7C166.951 213.561 172.728 210.767 186.26 197.631L209.402 175.021C232.97 153.28 260.836 139.139 292.047 131.977L323.606 125.826C341.018 121.668 351.624 113.4 371.322 112.005C389.163 110.208 397.27 118.657 410.182 128.883L429.451 142.935C467.164 167.91 530.667 190.806 532.426 244.227C532.729 253.427 532.088 262.697 532.736 271.882C533.876 288.048 540.275 303.058 546.852 317.665C557.613 341.561 565.096 355.618 549.313 378.564C535.173 399.12 508.04 434.904 484.028 444.07C468.668 449.934 474.006 446.47 462.266 457.937L446.246 472.579C423.726 492.324 396.032 508.354 366.789 515.469C353.676 518.659 340.279 519.769 326.846 519.794L307.549 519.695C277.523 518.106 239.334 511.61 211.018 503.541ZM369.851 128.25C364.592 128.767 360.048 129.819 355.102 131.641C371.28 145.237 391.336 155.023 410.804 162.999C419.469 166.549 429.299 169.641 437.328 174.471C445.716 179.517 442.227 188.911 434.229 188.912C420.756 188.912 359.359 157.053 345.164 143.998C339.476 138.767 341.878 137.669 335.211 139.505L292.5 148.226C274.767 152.315 255.174 159.843 240.28 170.696C241.702 171.562 243.836 172.009 245.461 172.408C276.486 180.02 320.715 151.68 341.476 193.458C345.14 200.83 346.851 206.205 354.138 210.772C372.865 222.51 395.01 211.071 413.99 206.128C439.058 199.599 464.681 209.361 479.316 230.501C493.159 250.735 491.992 270.997 497.428 293.848C500.099 305.077 504.548 315.517 507.901 326.503C517.026 356.4 508.817 384.939 493.834 411.395L487.983 420.959C487.353 421.966 486.053 423.542 485.768 424.661C503.279 412.171 517.085 395.202 529.982 378.186C545.665 357.494 546.055 354.269 534.794 329.536L527.061 312.338C517.047 288.459 516.793 278.409 516.756 254.113C516.749 249.735 516.988 245.11 516.31 240.781C510.443 203.31 469.163 185.466 440.03 168.672C427.104 161.22 411.431 150.47 400.012 141.005C390.074 132.768 383.468 126.28 369.851 128.25ZM225.738 182.128C214.366 191.316 188.619 215.132 183.778 229.617L180.674 238.7C173.799 258.199 165.759 278.372 150.769 293.166C135.385 308.348 128.568 294.229 133.574 287.563C135.507 284.989 138.151 282.736 140.37 280.383C152.823 267.181 160.062 249.467 165.816 232.547C156.462 237.653 146.597 243.089 138.368 249.876C118.264 266.458 97.4255 297.759 89.7084 323.438C89.3482 324.636 89.1834 326.028 88.6106 327.131L134.022 330.556C137.971 331.003 142.803 330.978 146.625 332.046C152.622 333.723 155.382 341.021 150.184 345.533C146.405 348.812 137.324 346.84 132.604 346.341L85.3771 343.155C84.1237 372.832 93.738 378.719 118.798 394.597L150.56 414.804C173.55 430.373 194.193 450.615 197.526 479.779C198.011 484.025 201.14 483.847 205.322 485.239C231.482 493.946 259.852 498.38 287.188 501.59C294.414 502.438 301.966 503.62 309.219 503.88L333.125 503.975C337.468 503.699 342.111 503.677 346.38 502.901L358.642 500.849C372.16 498.022 385.15 493.416 397.318 486.856L412.038 478.052C386.79 466.732 358.62 470.214 337.392 487.817C334.512 490.206 331.955 493.592 328.6 495.28C322.414 498.393 314.428 491.73 317.699 485.233C318.892 482.864 321.51 480.802 323.469 479.04C351.336 453.972 383.368 450.218 418.352 462.97L425.523 465.99C429.654 467.921 428.615 466.078 432.353 463.225C446.201 452.654 456.614 439.166 466.282 424.837C484.952 397.163 502.649 365.764 492.684 331.246L487.308 315.532C482.8 302.439 479.843 289.275 477.862 275.583C476.573 266.669 475.355 257.515 471.844 249.152C462.429 226.729 439.593 215.504 416.199 222.31C393.808 228.825 370.184 238.173 347.874 225.928C330.352 216.31 333.701 208.783 324.189 195.555C311.43 177.811 286.146 188.2 268.673 189.734C254.822 190.95 238.107 189.22 225.738 182.128Z"/>
	<path transform="scale(0.8 0.8)" d="M237.685 291.306C198.162 294.537 191.01 236.032 232.39 231.372C273.039 229.44 276.52 287.063 237.685 291.306ZM232.846 247.245C215.051 250.879 216.006 275.948 237.446 275.333C254.567 271.645 252.966 246.572 232.846 247.245Z"/>
	<path transform="scale(0.8 0.8)" d="M459.834 326.166C441.311 325.394 434.629 296.589 434.932 281.767C435.071 274.994 435.204 266.753 442.984 264.745C452.343 264.181 451.492 271.449 451.084 277.857C449.122 308.651 466.052 309.972 467.13 316.094C468.011 321.097 464.605 325.245 459.834 326.166Z"/>
	<path transform="scale(0.8 0.8)" d="M353.098 353.362C311.493 352.833 309.022 293.065 352.145 289.817C367.561 288.953 383.006 302.822 384.308 318.125C385.977 337.718 372.294 352.01 353.098 353.362ZM349.72 306.002C328.461 310.734 335.228 340.125 355.7 336.974C376.056 331.343 370.829 303.687 349.72 306.002Z"/>
	<path transform="scale(0.8 0.8)" d="M446.096 416.053C442.063 418.126 437.603 419.581 433.286 420.948C403.044 430.529 368.923 428.047 352.433 397.341C349.248 391.41 347.896 384.645 355.005 381.296C364.98 380.925 364.459 386.661 369.218 393.733C381.79 412.419 405.836 412.57 425.288 406.477L432.936 403.74C436.441 402.293 440.96 399.479 444.854 400.391C452.471 402.175 454.491 411.114 446.096 416.053Z"/>
	<path transform="scale(0.8 0.8)" d="M273.202 455.848C226.238 458.444 219.564 385.195 270.184 381.693C317.614 379.385 324.22 451.365 273.202 455.848ZM270.5 397.621C240.942 400.829 246.964 441.823 272.923 439.883C302.116 436.764 297.594 395.79 270.5 397.621Z"/>
</svg>
