<?xml version="1.0" encoding="utf-8" ?>
<svg xmlns="http://www.w3.org/2000/svg" xmlns:xlink="http://www.w3.org/1999/xlink" style="fill:#fff" width="512" height="512">
	<path transform="scale(0.8 0.8)" d="M280.304 538.657L272.5 539.168C233.005 539.737 225.206 510.383 196.465 495.278C188.185 490.927 179.128 488.508 170.225 485.799C155.879 481.433 142.361 476.629 129.375 468.963C100.233 451.76 99.7665 436.093 106.853 403.913C111.774 381.566 107.692 374.146 94.8196 355.903L83.3602 339.366C51.859 293.292 66.1186 277.043 105.578 242.626C119.053 230.873 123.357 226.283 130.577 209.9C140.103 188.287 153.868 164.964 178.883 159.75C182.703 158.953 186.725 158.978 190.605 158.652C216.295 156.491 222.08 140.883 237.681 125.223C259.304 103.518 289.538 111.208 316.828 109.25C331.683 108.185 344.671 104.677 359.927 104.638C389.245 104.698 404.761 117.098 420.431 141.972L441.507 179.322C456.633 205.37 473.695 231.605 496.268 251.887L523.118 274.407C539.302 288.64 553.976 305.23 567.124 322.28C577.085 335.196 577.246 334.063 566.488 345.851C538.582 376.428 541.813 416.202 504.428 444.311C481.892 461.255 453.28 467.193 430.983 484.563C420.372 492.829 412.84 504.18 402.395 512.545C376.898 532.964 353.719 509.984 331.172 515.443L330.625 515.584C325.257 516.923 321.02 520.19 316.468 523.15C305.042 530.582 294.031 536.713 280.304 538.657ZM358.67 121.102C342.136 121.431 327.248 125.947 309.845 125.984L289.095 126.02C274.699 126.056 260.218 126.105 249.613 137.109C229.286 158.199 226.435 169.188 194.482 174.578C189.249 175.461 183.763 175.658 178.69 177.28C153.17 185.435 150.162 213.098 138.413 231.64C125.42 252.145 102.39 263.449 88.3864 283.212C85.2656 287.617 82.3691 292.814 82.4443 298.37C82.8132 325.624 129.711 355.682 125.741 393.727C124.062 409.815 112.064 432.846 125.957 446.156C135.952 455.73 153.542 462.997 166.472 467.156C198.402 477.424 206.03 477.317 231.045 500.822C246.985 515.8 255.919 524.066 279.407 522.166C289.199 520.593 298.503 515.951 306.488 510.156C310.278 507.406 313.731 504.207 318 502.179C344.592 489.546 370.431 508.472 384.409 504.163L384.903 504.015C391.543 501.936 397.445 494.74 402.034 489.745L412.161 479.149C423.923 467.734 438.046 459.312 452.875 452.496C498.758 431.404 508.82 426.941 527.375 380.869C534.732 362.602 541.993 348.377 555.313 333.972C542.827 318.741 530.168 303.645 515.627 290.301L485.139 264.582C460.58 242.854 442.073 214.365 426.209 185.964L412.843 161.683C403.209 144.497 389.8 123.311 368.013 121.354L358.67 121.102Z"/>
	<path transform="scale(0.8 0.8)" d="M519.691 342.355C515.905 342.578 512.329 340.99 508.892 339.602L497.196 334.301C459.078 315.037 427.789 283.956 406.95 246.857C401.551 237.246 397.386 227.204 392.577 217.321C386.665 205.171 359.636 150.969 366.699 138.081C368.098 135.528 370.635 134.283 373.291 133.502C383.826 132.89 382.836 145.096 384.183 152.384C387.975 172.891 398.46 190.931 407.282 209.554C411.621 218.713 415.687 228.001 420.603 236.875C439.681 271.308 467.051 299.781 502.312 317.948C507.948 320.852 513.763 323.048 519.549 325.586C528.954 329.712 529.191 338.864 519.691 342.355Z"/>
	<path transform="scale(0.8 0.8)" d="M324.583 179.293C309.647 179.498 286.394 167.88 276.171 157.812C269.462 151.204 266.928 143.872 277.704 140.344C283.113 140.054 285.425 143.478 289.162 146.909C297.035 154.139 305.165 158.122 315.626 160.597C319.392 161.488 323.585 161.409 326.994 163.409C334.456 167.789 333.003 177.767 324.583 179.293Z"/>
	<path transform="scale(0.8 0.8)" d="M237.647 235.42C232.841 235.255 231.591 231.699 228.727 228.401C217.858 215.883 205.602 217.055 191.719 215.418C180.597 214.106 179.953 200.4 192.468 198.231C204.779 197.647 222.217 202.057 232.236 209.374C238.676 214.077 251.577 223.892 244.132 232.528C242.225 234.74 240.423 235.205 237.647 235.42Z"/>
	<path transform="scale(0.8 0.8)" d="M379.288 302.925C375.918 302.827 372.426 300.874 369.325 299.634C354.916 293.869 338.556 295.026 324.627 288.243C314.313 283.22 306.205 274.721 300.282 265.012C295.905 257.838 289.92 246.986 302.07 243.481C309.268 243.094 310.75 247.68 313.247 253.556C322.015 274.193 337.675 275.322 356.273 278.978C362.523 280.207 383.123 284.381 385.743 291.273C387.863 296.852 384.585 301.3 379.288 302.925Z"/>
	<path transform="scale(0.8 0.8)" d="M207.881 375.519C204.761 376.283 201.563 376.293 198.37 376.3C173.942 376.354 149.997 364.331 137.208 343.05C133.312 336.568 129.659 327.742 131.673 320.061L131.82 319.531C134.44 309.666 143.152 305.684 152.718 304.494C168.498 303.062 185.03 308.858 198.563 316.534C213.923 325.247 238.685 343.578 226.268 363.856C222.126 370.619 215.297 373.667 207.881 375.519ZM156.053 320.763C152.389 321.097 147.291 321.518 148.015 326.284C151.078 346.432 184.687 363.027 204.058 359.427L204.638 359.313C216.465 356.375 213.435 349.118 206.646 342.747C193.634 330.535 174.031 321.232 156.053 320.763Z"/>
	<path transform="scale(0.8 0.8)" d="M382.49 415.617C372.812 417.638 371.166 404.061 368.318 397.945C353.524 366.169 307.136 377.438 284.996 335.949C280.649 327.801 272.899 312.763 284.088 307.266C294.27 305.577 293.922 313.812 296.473 320.933C300.288 331.585 308.708 340.672 317.926 346.972C342.502 363.768 367.223 357.809 382.55 389.311C386.402 397.229 393.9 410.712 382.49 415.617Z"/>
	<path transform="scale(0.8 0.8)" d="M473.121 408.876C467.737 409.673 464.969 406.286 461.41 402.712C453.677 394.946 422.552 356.129 442.924 348.487C452.1 347.956 452.039 357.005 454.502 363.581C458.609 374.544 466.182 384.105 474.472 392.25C480.832 398.499 482.729 405.01 473.121 408.876Z"/>
	<path transform="scale(0.8 0.8)" d="M187.573 440.312C182.699 440.46 170.561 428.267 159.354 425.913C153.236 424.628 138.612 422.42 145.518 411.952C147.151 409.478 149.366 408.525 152.13 407.895C174.42 406.509 213.015 433.767 187.573 440.312Z"/>
	<path transform="scale(0.8 0.8)" d="M312.023 476.195C295.918 477.122 306.576 443.45 267.19 443.175C251.496 443.065 252.33 428.874 263.071 426.312C286.864 426.018 300.473 430.983 313 452.371C317.572 460.177 325.156 471.896 312.023 476.195Z"/>
</svg>
