<?xml version="1.0" encoding="utf-8" ?>
<svg xmlns="http://www.w3.org/2000/svg" xmlns:xlink="http://www.w3.org/1999/xlink" style="fill:#fff" width="512" height="512">
	<path transform="scale(0.8 0.8)" d="M271.489 509.424L257.871 511.683C239.494 515.516 220.109 519.763 201.761 513.134C195.68 510.937 190.073 507.794 184.142 505.267C171.994 500.091 160.29 499.347 147.248 499.41C144.093 499.425 140.785 499.621 137.652 499.255C121.699 497.391 110.157 479.253 108.625 464.49C107.498 453.636 108.672 444.739 103.022 434.44C96.7232 422.96 83.6586 417.015 75.7145 406.875C64.9269 393.105 69.587 377.667 77.3858 363.889L85.3992 350.204C94.0921 334.456 102.071 317.982 107.476 300.799C119.998 260.99 119.867 223.089 160.269 198.281C183.507 184.013 212.803 171.431 239.545 167.562C246.774 166.517 254.107 165.82 260.976 163.153C271.046 159.243 277.75 150.943 287.059 145.845C298.164 139.763 309.248 139.643 321.539 139.667C324.243 139.673 328.329 139.22 330.845 140.06L331.25 140.207C337.714 136.672 343.521 141.37 349.062 138.824C359.244 134.147 359.238 120.01 379.846 117.617C394.14 115.548 404.015 124.963 412.618 135.11C425.095 149.827 438.818 145.013 446.195 164.58C448.028 169.442 448.927 174.378 452.424 178.434C464.46 192.395 483.079 199.332 498.024 209.55C510.955 218.392 521.009 230.32 533.103 240.102C549.575 253.425 588.652 271.242 585.364 295.312C583.886 306.131 576.151 303.975 570.744 308.482C560.09 317.363 578.407 334.315 557.456 348.117C547.629 354.59 536.42 358.884 525.121 362.031C520.07 363.438 514.015 363.28 509.781 366.564C484.029 386.534 478.437 423.099 450.292 444.75C426.155 463.317 406.441 461.725 382.1 472.888C359.948 483.047 323.718 515.401 299.575 512.044L299.062 511.968C286.547 510.194 285.882 508.085 271.489 509.424ZM382.299 133.232C369.576 135.171 365.799 149.989 353.657 153.965C348.631 155.61 341.435 157.23 336.386 155.286C329.569 152.66 330.835 153.891 323.642 154.644C296.795 157.458 300.565 155.086 280.192 170.097C263.309 182.536 247.328 181.019 227.955 185.469C212.306 189.063 197.054 196.389 182.908 203.867C130.757 231.435 137.987 255.198 123.141 303.792C118.22 319.898 111.231 335.547 103.343 350.412L95.5021 364.238C88.7929 375.576 78.8464 387.691 90.208 399.233C107.03 416.321 120.763 422.376 123.607 448.25C124.905 460.064 123.027 473.099 134.351 481.124C141.593 486.256 156.319 482.73 165.118 484.048C175.969 485.673 185.392 488.869 195.441 493.07C213.399 500.579 221.14 502.626 241.384 498.929L269.844 493.871C276.103 492.885 283.166 492.642 289.465 493.366C293.647 493.847 297.701 495.493 301.901 495.932C319.07 497.726 355.943 467.464 373.887 459.037C392.873 450.12 414.444 448.189 432.7 437.626C456.162 424.052 464.767 399.061 478.871 377.592C484.148 369.559 509.978 337.691 521.897 346.496L523.329 347.828C523.775 348.258 523.555 348.139 524.069 348.274L524.419 347.965C532.037 341.271 543.61 340.749 550.537 332.661C555.099 327.335 546.394 310.777 558.906 298.496C562.275 295.189 566.347 293.271 570.174 290.639C563.416 276.795 539.229 265.178 526.734 255.199C514.444 245.383 504.157 233.228 491.252 224.151C472.319 210.833 441.937 200.913 433.856 176.957C428.821 162.027 429.524 165.627 416.012 158.699C403.064 152.06 394.535 132.275 382.299 133.232Z"/>
	<path transform="scale(0.8 0.8)" d="M424.947 214.331C415.85 214.743 399.949 211.028 391.339 208.292C384.205 206.026 353.43 193.952 351.362 185.847C350.063 180.753 353.012 176.749 357.943 175.716C362.611 175.999 366.235 179.12 370.154 181.376L379.998 186.586C388.695 190.775 397.956 194.11 407.43 196.034L418.427 198.001C422.872 198.701 429.89 198.64 431.226 204.194C432.451 209.286 429.937 213.033 424.947 214.331Z"/>
	<path transform="scale(0.8 0.8)" d="M310.778 257.173C305.299 256.202 302.994 253.106 299.416 249.059C285.987 233.872 247.341 227.971 241.405 212.393C236.169 198.651 257.182 193.323 266.051 190.301L279.629 185.094C284.352 183.041 288.514 179.641 293.219 177.85C294.423 177.792 295.843 177.607 297.009 177.956L297.344 178.067C299.682 178.809 301.616 180.227 302.756 182.451C306.502 189.757 300.382 192.532 294.787 195.428C288.529 198.667 282.105 201.67 275.488 204.102L259.509 209.265C271.37 217.218 285.897 220.383 298.091 227.768C303.522 231.057 317.393 241.515 318.633 247.839C319.721 253.381 315.82 256.444 310.778 257.173Z"/>
	<path transform="scale(0.8 0.8)" d="M163.469 319.386C152.085 319.841 152.171 311.138 156.666 303.585L160.337 296.932C169.21 279.051 172.086 260.481 170.802 240.598C170.336 233.399 167.129 225.286 175.609 221.638C183.408 220.907 184.886 227.035 185.878 233.668C189.389 257.145 185.415 280.558 175.437 302.039L170.282 312.135C168.478 315.365 167.053 318.071 163.469 319.386Z"/>
	<path transform="scale(0.8 0.8)" d="M499.058 315.776C488.674 316.601 488.341 307.769 491.534 300.312C496.427 288.888 507.885 266.291 520.429 261.29C526.724 260.956 531.831 266.539 529.69 271.974C528.577 274.799 525.067 277.084 522.955 279.225C516.907 285.355 511.997 293.362 508.48 301.14C505.996 306.632 504.917 312.979 499.058 315.776Z"/>
	<path transform="scale(0.8 0.8)" d="M210.858 334.624L210.011 334.469C205.465 333.623 203.427 330.108 202.542 325.748C197.965 303.203 219.237 288.167 234.998 276.504C238.587 273.848 242.018 270.337 246.498 269.432C248.161 269.509 249.707 269.652 251.094 270.664C258.383 275.986 253.281 282.433 248.2 286.327L239.062 293.114C231.498 298.782 221.019 306.135 218.593 315.831C216.793 323.024 221.749 333.256 210.858 334.624Z"/>
	<path transform="scale(0.8 0.8)" d="M413.679 319.672L406.982 311.205C401.978 304.989 400.345 303.552 392.118 304.348C380.697 305.453 370.626 310.901 363.306 319.71C361.011 322.473 359.142 326.079 356.51 328.492C350.461 334.039 336.225 327.568 350.668 309.89C361.641 296.459 376.606 289.67 393.617 287.936C406.417 285.605 413.94 295.634 421.272 304.033C431.711 315.991 440.601 328.269 440.958 345C441.079 350.621 441.28 360.266 437.031 364.45C433.475 367.953 428.185 365.85 425.396 362.452C420.407 356.376 432.805 342.994 413.679 319.672Z"/>
	<path transform="scale(0.8 0.8)" d="M216.658 490.728C212.131 490.555 209.901 487.137 207.421 483.768L201.144 475.321C195.284 467.786 188.062 460.756 180.308 455.207L166.752 445.974C141.947 427.526 127.663 394.529 134.593 364.027C135.759 358.896 136.785 353.804 142.598 352.588C154.136 353 150.119 364.738 149.045 372.188C145.982 393.43 156.906 417.123 173.231 430.783C191.394 445.982 201.041 448.416 216.449 469.655C221.262 476.289 230.086 487.228 216.658 490.728Z"/>
	<path transform="scale(0.8 0.8)" d="M252.852 433.03C249.542 433.25 247.192 432.137 245.514 429.151C241.98 422.861 247.274 417.362 251.247 413.013C263.795 399.275 269.473 398.963 285.606 391.036C303.476 382.256 285.179 372.997 301.209 367.826C313.595 367.131 310.445 387.654 306.5 393.933C296.567 409.745 275.146 408.388 264.104 422.969C260.6 427.595 258.89 431.695 252.852 433.03Z"/>
	<path transform="scale(0.8 0.8)" d="M342.181 448.952L330.648 462.251C328.399 464.799 326.183 467.751 323.548 469.896C315.65 476.325 305.298 466.99 311.531 459.547L322.695 447.228C335.087 432.986 351.346 409.489 371.472 407.631C385.186 406.85 397.462 413.309 407.848 421.721C416.703 428.891 409.892 438.493 403.122 436.831C400.634 436.22 397.745 433.624 395.602 432.151C378.035 420.072 369.959 419.717 355.003 434.844L342.181 448.952Z"/>
</svg>
