<?xml version="1.0" encoding="utf-8" ?>
<svg xmlns="http://www.w3.org/2000/svg" xmlns:xlink="http://www.w3.org/1999/xlink" style="fill:#fff" width="512" height="512">
	<path transform="scale(0.8 0.8)" d="M352.232 523.617C328.827 517.547 313.504 517.707 290.178 527.027C277.312 532.167 268.134 535.595 254.164 532.2C246.905 530.436 239.839 527.243 232.444 526.082C228.526 525.466 224.218 525.711 220.242 525.579C186.565 524.454 160.989 513.788 142.656 485.318C136.618 475.941 131.742 466.246 124.799 457.421C103.104 429.841 50.5899 386.567 75.4965 347.099C78.1079 342.96 81.3809 339.365 84.2686 335.433C98.5943 315.93 100.807 295.684 100.825 272.093C100.858 229.579 112.562 224.525 146.224 202.531C153.985 197.46 161.626 191.695 168.459 185.421C183.734 171.394 193.871 152.335 208.233 137.344C227.415 117.322 250.801 104.837 278.643 104.251C290.69 104.232 300.783 106.214 312.344 106.644C361.795 108.484 387.995 103.133 428.496 136.715C433.109 140.54 437.514 144.708 442.44 148.13C456.797 158.103 474.789 159.747 488.997 170.036C506.48 182.696 511.267 201.636 515.46 221.812C519.113 239.391 521.786 242.957 532.902 256.994C555.593 285.648 570.737 318.075 570.86 354.991C570.886 362.508 570.778 369.254 568.762 376.562L568.306 378.086C564.053 391.288 554.783 396.881 543.81 403.791L523.969 416.489C508.558 426.97 493.201 438.284 480.135 451.639C471.324 460.643 463.812 470.511 455.556 479.973C442.342 495.119 426.968 507.838 409.502 517.8C388.183 529.959 376.077 530.197 352.232 523.617ZM279.584 120.479C243.281 120.609 220.162 145.48 201.074 172.663C225.795 171.609 253.498 162.76 271.966 145.522C274.341 143.305 276.52 140.365 279.11 138.447C284.69 134.315 292.644 138.283 292.432 145.469C292.286 150.431 286.257 155.055 282.779 158.067C260.489 177.366 225.386 190.923 195.469 188.63L188.714 187.771C177.887 200.649 163.51 211.334 149.282 220.223C142.271 224.602 134.412 228.239 128.548 234.172L125.006 238.362C114.471 253.223 117.557 271.088 116.83 288.103C116.047 306.461 110.64 325.545 100.513 340.975C95.8034 348.151 88.5334 354.184 86.2162 362.656L86.0722 363.168C79.1977 388.963 117.272 422.119 133.33 441.761C138.552 448.149 143.389 455.002 147.808 461.97L158.461 479.145C167.64 492.999 180.047 502.206 196.406 506.274L208.89 508.562C222.927 510.906 232.948 508.479 248.715 513.281C268.17 519.207 270.617 517.595 288.125 510.301C295.029 507.425 302.287 505.393 309.658 504.133C325.856 501.867 340.158 503.666 355.799 507.656C364.805 509.954 374.396 513.023 383.75 511.145C401.034 507.675 422.956 489.945 435.139 477.569C436.8 475.881 442.425 471.002 442.856 468.938C428.625 466.914 410.673 469.816 398.973 478.608C395.012 481.585 391.554 485.704 386.075 485.161C381.772 484.734 379.198 480.617 379.731 476.539C380.319 472.038 385.958 467.553 389.412 465.116C404.053 454.786 427.452 449.757 445.436 452.798L446.573 453.008C449.351 453.51 452.778 453.892 455.597 453.698C474.322 433.888 490.113 419.592 513 404.203L541.41 386.053C553.4 378.345 554.342 372.228 554.375 358.029L554.292 346.819C554.152 342.135 553.399 337.535 552.587 332.924L550.213 322.458C545.265 304.321 535.042 287.078 523.851 272.101C517.722 263.899 510.693 256.004 506.172 246.757C495.674 225.286 500.188 196.889 477.701 182.359C466.174 174.91 452.069 172.396 440.008 165.788C431.572 161.166 424.943 155.162 417.676 148.987C403.71 137.119 389.356 129.615 371.406 125.928L360.244 124.057C355.763 123.208 350.946 123.464 346.398 123.452L319.78 123.378C317.184 123.278 314.589 122.834 312.005 122.571L295.842 121.047C290.446 120.543 284.998 120.558 279.584 120.479Z"/>
	<path transform="scale(0.8 0.8)" d="M449.89 210.405L439.741 212.6C433.61 214.206 417.747 213.718 411.329 213.092C387.347 210.756 367.574 198.459 351.854 180.58C348.101 176.311 343.356 171.594 346.406 165.508C347.25 163.826 348.948 162.04 350.781 161.474L352.629 161.03C360.262 161.457 361.494 166.203 365.861 171.56C383.135 192.743 416.213 202.569 442.335 195.278C459.476 190.493 460.064 206.216 449.89 210.405Z"/>
	<path transform="scale(0.8 0.8)" d="M349.02 337.886C343.015 338.769 337.269 340.839 331.361 342.153C314.408 345.921 300.904 341.347 294.611 323.489C293.01 318.948 291.977 314.26 289.561 310.043C284.415 301.059 276.151 294.557 270.199 286.201C259.67 271.419 258.27 248.032 272.126 234.844C280.915 226.478 295.488 222.119 307.471 222.443C330.97 221.854 343.727 232.275 359.224 247.7C374.261 262.667 411.885 305.093 394.997 327.906C383.401 343.573 364.924 335.553 349.02 337.886ZM305.309 238.878C290.473 240.401 276.198 246.472 278.27 263.639C280.193 279.569 301.372 292.022 307.193 310.156C314.218 332.042 316.638 329.587 339.301 323.3C342.834 322.32 346.413 321.665 350.057 321.269C359.949 321.145 382.34 326.354 382.21 313.779C382.005 293.963 354.547 265.812 341.555 253.232C332.212 244.186 318.887 236.332 305.309 238.878Z"/>
	<path transform="scale(0.8 0.8)" d="M179.017 336.558C161.286 336.821 140.874 320.024 137.85 302.674C134.902 285.753 149.643 246.53 170.781 243.214C178.824 242.853 184.938 246.29 191.333 251.044C213.906 267.825 217.771 300.574 200.755 322.739C195.044 330.178 188.316 335.298 179.017 336.558ZM171.02 260.469C161.933 265.343 149.974 293.639 156.589 305.7C160.958 313.665 168.686 320.75 178.28 319.757C192.524 315.522 197.474 294.491 193.597 281.941C191.23 274.281 181.235 257.995 171.02 260.469Z"/>
	<path transform="scale(0.8 0.8)" d="M512.098 369.544C504.002 369.178 503.222 363.767 501.466 356.841C497.159 339.85 486.207 327.792 477.72 313.131C472.912 304.826 458.956 275.8 474.244 272.242C481.828 272.83 482.621 278.42 484.081 284.844C487.956 301.894 497.632 312.591 506.519 326.963C511.588 335.159 528.024 364.965 512.098 369.544Z"/>
	<path transform="scale(0.8 0.8)" d="M472.057 403.608C453.791 411.876 429.641 404.355 421.396 385.657C417.919 377.77 411.634 362.163 422.227 357.844C432.545 356.777 432 365.027 433.975 372.758C437.27 385.653 447.833 392.629 461.329 389.271C464.335 388.523 468.485 386.684 471.571 387.276C479.193 388.739 480.34 398.683 472.057 403.608Z"/>
	<path transform="scale(0.8 0.8)" d="M334.765 478.456L330.612 479.052C295.887 481.454 252.175 444.995 249.843 409.888C248.155 384.47 266.625 372.836 289.882 371.387C320.507 370.383 344.184 384.668 364.494 407.243C383.876 428.789 372.548 439.449 356.724 459.333C349.616 468.266 346.317 475.142 334.765 478.456ZM287.404 387.928C265.989 390.281 260.803 404.334 270.391 423.278C280.507 443.267 300.762 458.729 322.995 462.13C327.468 462.814 331.274 463.663 334.939 460.518L341.977 451.591C347.062 445.435 353.04 439.76 356.663 432.546C359.381 427.134 357.875 424.589 354.185 420.075C338.203 400.526 313.265 385.352 287.404 387.928Z"/>
	<path transform="scale(0.8 0.8)" d="M200.249 470.413C184.455 463.097 167.1 444.377 159.696 429.297C152.242 414.113 152.536 392.411 173.142 390.755C187.202 390.377 202.354 403.301 208.582 414.904C214.877 426.63 217.196 439.163 216.322 452.348C215.617 462.974 213.696 475.577 200.249 470.413ZM172.751 407.656C167.987 412.035 176.109 425.224 178.709 429.009C184.257 437.09 190.88 445.376 199.531 450.297L200.156 450.466C201.701 442.857 197.344 427.494 193.437 421.502C189.71 415.783 180.426 406.355 172.751 407.656Z"/>
</svg>
