<?xml version="1.0" encoding="utf-8" ?>
<svg xmlns="http://www.w3.org/2000/svg" xmlns:xlink="http://www.w3.org/1999/xlink" style="fill:#fff" width="512" height="512">
	<path transform="scale(0.8 0.8)" d="M325.554 518.463C307.861 514.133 291.062 507.115 273.457 502.505C254.878 497.64 235.064 498.126 217.438 489.81C209.263 485.953 201.714 481.004 193.423 477.298L171.971 468.548C143.366 457.001 144.028 447.699 133.736 419.531C130.253 409.997 126.358 399.981 121.699 390.963C116.128 380.179 108.2 371.529 101.767 361.392C87.2334 338.487 85.1787 298.414 101.628 275.949C107.151 268.406 105.855 271.599 112.158 267.49C120.139 262.289 119.866 249.923 121.576 241.562C129.069 204.909 166.599 202.58 180.756 174.413C185.827 164.324 191.164 156.386 200.813 150.123C214.258 141.394 235.132 136.815 250.907 140.251C259.333 142.086 269.421 142.091 277.143 137.899C290.011 130.912 293.736 127.933 310.032 127.715C329.138 126.095 355.252 132.829 371.652 141.984C395.68 155.397 412.391 178.949 437.436 191.184L449.911 196.617C468.816 205.256 477.132 217.166 486.259 234.666C492.423 246.484 498.132 258.26 500.495 271.496C504.052 291.412 502.086 293.403 511.899 311.482C525.176 335.944 547.33 363.5 541.373 393.147L540.621 396.169C536.15 411.373 523.677 419.08 509.719 424.512C487.847 433.022 488.109 438.895 475.533 458.179C455.816 488.413 416.846 516.887 380.469 521.47C362.598 523.722 343.06 522.068 325.554 518.463ZM306.746 142.931C295.868 144.229 291.67 147.182 282.518 152.261C258.913 165.362 236.806 142.619 207.253 164.463C196.739 172.235 194.388 186.35 185.495 195.688C160.334 222.112 143.444 211.26 134.15 257.283C131.55 270.157 126.713 275.08 116.658 283.666C105.861 292.886 105.707 299.296 105.571 313.776C105.304 342.341 112.433 349.376 127.856 371.804C136.9 384.956 142.658 399.747 148.002 414.693C152.442 427.111 155.168 443.591 167.963 450.228C182.376 457.706 198.326 461.561 212.476 469.761C229.487 479.62 234.328 480.374 253.766 483.339L275.98 487.604C293.506 491.863 310.161 499.068 327.656 503.307C348.211 507.334 372.195 509.592 392.569 503.506C414.141 497.062 440.417 478.494 454.444 461.176C465.947 446.974 473.456 426.594 489.432 416.803C502.452 408.824 522.849 407.634 526.506 389.554C532.969 357.604 492.519 323.594 487.702 289.432L486.168 276.716C483.255 259.567 468.076 225.68 453.46 215.815C447.712 211.935 440.619 209.593 434.38 206.581C415.906 197.66 401.087 185.316 385.756 171.841C366.839 155.214 356.591 149.43 331.273 144.592C326.944 143.765 310.763 141.444 306.746 142.931Z"/>
	<path transform="scale(0.8 0.8)" d="M179.922 344.342C169.329 344.705 160.24 343.018 151.968 335.976C130.187 317.432 138.848 283.211 149.229 261.096C168.37 220.319 206.079 182.389 252.895 178.566C273.308 175.723 291.254 191.696 292.993 211.694C297.774 266.677 234.296 339.599 179.922 344.342ZM251.854 193.565C176.486 200.77 117.38 332.503 180.387 329.32C223.388 323.889 283.536 257.84 278.213 213.812C276.533 199.909 265.653 192.271 252.05 193.53L251.854 193.565Z"/>
	<path transform="scale(0.8 0.8)" d="M353.29 199.662C338.927 191.731 334.382 201.653 326.065 203.727C314.162 206.694 311.342 185.561 339.705 181.353C350.512 180.438 370.474 187.675 373.71 198.327C374.992 202.545 373.024 206.236 368.68 207.277C362.744 208.7 358.094 202.479 353.29 199.662Z"/>
	<path transform="scale(0.8 0.8)" d="M428.226 293.098C383.182 297.458 378.449 228.353 417.376 221.009C456.562 217.72 471.486 285.469 428.226 293.098ZM418.248 236.326C398.656 243.749 403.541 280.986 427.157 278.084C448.679 272.995 439.035 233.987 418.248 236.326Z"/>
	<path transform="scale(0.8 0.8)" d="M351.642 308.011C338.213 302.92 333.554 312.201 325.781 314.211C318.293 316.148 310.404 304.853 325.017 297.337C330.442 294.546 335.705 292.803 341.743 291.986C352.68 291.149 363.664 294.801 371.572 302.558C376.062 306.961 376.77 313.41 370.403 316.202C365.439 318.378 357.112 310.334 351.642 308.011Z"/>
	<path transform="scale(0.8 0.8)" d="M443.667 368.416C441.159 375.181 442.28 386.401 440.549 389.008C436.119 395.677 427.384 392.99 426.32 385.126C423.763 366.229 434.874 343.488 455.252 340.739C464.976 339.321 482.913 345.111 486.901 354.614C488.525 358.485 485.903 363.517 481.969 364.779C474.85 367.062 455.844 341.589 443.667 368.416Z"/>
	<path transform="scale(0.8 0.8)" d="M197.652 393.5C195.339 391.871 192.523 389.335 189.881 388.401C184.515 386.503 177.774 391.073 172.658 387.05C164.005 380.246 173.766 372.599 182.859 372.006C191.017 372.252 206.097 375.964 209.152 384.688C211.528 391.477 204.733 397.104 197.652 393.5Z"/>
	<path transform="scale(0.8 0.8)" d="M317.417 469.654C306.116 470.299 295.682 468.833 286.562 461.566C252.37 434.315 283.24 380.63 322.35 376.684C361.01 372.578 379.964 415.796 357.49 446.228C347.854 459.276 333.298 467.335 317.417 469.654ZM323.628 391.993C296.803 395.224 273.288 432.465 295.86 449.559C301.724 454 309.477 455.263 316.638 454.316C341.121 450.877 363.259 422.003 346.592 400.945C341.164 394.087 332.162 391.097 323.628 391.993Z"/>
	<path transform="scale(0.8 0.8)" d="M403.376 464.491C402.28 467.172 401.467 470.404 399.801 472.777C393.246 482.113 375.223 470.907 396.874 446.562C403.535 439.072 411.519 435.387 421.462 434.818C426.278 434.956 430.242 435.645 434.675 437.54C443.2 441.185 449.647 451.184 438.438 454.776C431.294 457.065 416.914 437.572 403.376 464.491Z"/>
</svg>
