<?xml version="1.0" encoding="utf-8" ?>
<svg xmlns="http://www.w3.org/2000/svg" xmlns:xlink="http://www.w3.org/1999/xlink" style="fill:#fff" width="512" height="512">
	<path transform="scale(0.8 0.8)" d="M315.881 508.104C313.059 507.982 309.557 508.42 306.667 508.427C297.299 508.447 287.639 508.908 278.314 508.273C230.355 505.002 179.502 491.099 141.638 460.149C103.318 428.825 77.8059 379.378 84.9468 329.356C93.2425 271.247 137.277 218.486 182.721 183.43C215.691 157.996 278.226 124.022 320.439 120.44C346.524 117.542 397.849 136.098 418.381 149.548C431.964 158.446 441.627 170.869 452.199 182.937L471.712 205.552C477.973 213.513 483.771 221.895 490.563 229.425C516.699 258.404 540.251 269.715 549.44 310.861L551.081 320.337C551.44 321.962 551.488 323.555 551.61 325.209C554.784 368.423 534.523 405.375 503.138 434.343C452.474 481.107 383.649 503.296 315.881 508.104ZM324.587 135.902C338.318 167.334 388.453 160.394 399.112 185.82C404.571 198.84 391.416 201.855 391.883 211.548C393.062 236.032 418.894 260.722 437.973 272.736C446.844 278.322 477.292 294.321 471.484 307.5C469.548 311.895 465.45 314.266 460.907 312.068C456.919 310.139 456.148 306.106 453.846 302.83C450.374 297.89 431.484 287.706 425.525 283.544C412.545 274.48 401.487 263.785 392.045 251.075C377.197 231.087 371.984 215.13 382.615 191.287C382.698 191.102 383.073 190.19 383.004 190.057C376.891 178.283 327.628 180.613 308.995 139.78C308.477 138.646 308.799 138.495 307.616 138.766L296.316 141.676C275.954 147.921 255.728 157.267 237.117 167.489L213.409 181.287C155.771 218.613 86.6181 292.646 101.579 367.881C119.406 447.375 195.876 485.417 271.888 491.774L315.437 492.595L326.208 491.537C381.08 486.097 436.018 467.695 479.568 433.218C514.758 405.36 533.027 378.69 536.54 334.531C510.686 326.446 486.03 303.068 480.395 275.809C478.778 267.986 479.234 259.65 480.45 251.805C481.414 245.585 482.567 245.066 478.698 240.011L456.748 212.295L438.268 191.526C415.33 165.048 407.936 157.222 371.588 145.683L345.938 138.712C338.808 137.12 331.92 135.827 324.587 135.902ZM494.987 255.496C495.034 266.41 495.238 273.238 499.879 283.289C505.873 296.267 517.088 307.663 529.675 314.447L534.861 316.768C529.478 296.4 522.228 283.315 507.866 268.481L494.987 255.496Z"/>
	<path transform="scale(0.8 0.8)" d="M261.174 284.757C238.971 287.205 214.44 270.989 212.017 247.859C208.884 217.96 231.428 191.302 261.21 188.567L261.461 188.531C272.921 187.26 285.716 190.859 294.54 198.269C328.275 226.599 305.131 281.362 261.174 284.757ZM262.247 204.498C219.976 209.181 212.804 271.207 260.539 269.059C307.176 262.207 303.91 200.772 262.247 204.498Z"/>
	<path transform="scale(0.8 0.8)" d="M161.325 344.643C142.473 346.99 124.797 335.512 122.402 315.932C119.091 288.856 141.539 261.472 168.393 258.249C176.55 257.075 185.294 259.875 191.873 264.659C224.728 288.555 201.126 338.872 161.325 344.643ZM168.938 274.147C137.124 278.97 123.007 332.575 159.884 328.967C199.506 320.575 199.489 270.358 168.938 274.147Z"/>
	<path transform="scale(0.8 0.8)" d="M397.192 314.062C394.818 303.009 376.339 302.841 371.247 311.406C367.63 317.491 371.539 323.88 373.133 329.8C370.916 342.177 355.834 338.488 354.056 321.552C352.159 303.476 364.965 291.665 382.106 289.814C397.46 287.505 415.607 300.371 413.556 317.067L413.477 317.656C412.392 326.325 397.337 356.132 386.237 344.606C378.473 336.544 397.253 326.434 397.192 314.062Z"/>
	<path transform="scale(0.8 0.8)" d="M475.543 414.654C473.104 427.559 458.332 425.065 459.659 409.062C460.953 393.457 474.721 362.461 491.195 358.168C494.317 358.044 496.474 358.06 498.328 361.037C500.61 364.701 505.787 382.597 504.815 386.512C503.947 390.009 498.908 393.406 495.312 392.148C491.315 390.748 489.727 385.498 488.177 381.983C478.368 393.085 476.714 400.755 475.543 414.654Z"/>
	<path transform="scale(0.8 0.8)" d="M354.064 455.656L347.865 455.415C326.126 452.814 308.184 434.886 311.105 412.162L311.184 411.562C313.843 390.546 332.303 378.592 352.393 377.324C405.838 377.385 411.076 451.821 354.064 455.656ZM348.743 393.542C341.756 394.582 334.939 397.632 330.68 403.5C317.835 421.197 334.899 441.856 357.542 439.477C392.155 432.686 382.737 390.078 348.743 393.542Z"/>
	<path transform="scale(0.8 0.8)" d="M216.634 459.644C202.449 461.403 187.553 457.278 175.964 448.997C148.639 429.472 151.694 396.806 186.165 392.306C191.048 392.052 196.244 391.874 201.1 392.397C226.584 395.141 258.679 421.758 240.005 446.875C234.372 454.451 225.753 458.263 216.634 459.644ZM189.986 407.627C154.726 409.969 182.125 446.289 213.773 444.105C246.259 440.243 223.361 406.186 189.986 407.627Z"/>
</svg>
