<?xml version="1.0" encoding="utf-8" ?>
<svg xmlns="http://www.w3.org/2000/svg" xmlns:xlink="http://www.w3.org/1999/xlink" style="fill:#fff" width="512" height="512">
	<path transform="scale(0.8 0.8)" d="M319.438 512.766C316.054 512.233 304.656 509.772 302.196 511.049C285.684 519.621 267.446 535.145 247.496 530.822L246.157 530.51C233.229 527.206 226.475 516.002 218.539 506.382C207.406 492.887 196.114 486.752 180.734 478.788C153.702 464.791 119.437 446.49 138.454 410.917C147.955 393.144 132.623 378.933 120.03 367.16C103.675 351.869 96.4073 339.963 106.113 316.373C108.095 311.555 111.015 306.639 112.173 301.572L112.276 301.094C113.773 294.339 110.089 286.132 109.477 279.242C107.47 256.616 130.417 246.422 140.444 229.349C146.563 218.93 149.883 206.861 154.065 195.582L161.505 177.187C166.724 163.314 158.219 148.918 167.851 137.656C181.624 121.553 202.607 126.49 219.829 133.545C250.056 145.928 250.714 138.651 278.931 128.108C284.585 125.995 290.155 124.964 296.15 124.508C327.079 121.724 345.042 159.035 384.639 153.491C417.801 148.847 420.89 159.248 435.216 184.479C449.477 209.594 493.04 223.072 494.773 248.414C496.078 267.488 489.335 269.013 501.416 287.315C521.023 317.016 519.69 314.084 513.97 348.706C509.506 375.723 554.415 391.998 528.754 421.218C505.932 447.206 475.606 427.422 467.295 475.368C462.801 501.289 463.808 503.035 439.153 513.626L419.678 521.164C398.688 528.362 384.274 532.705 362.97 525.597L344.375 518.66C336.216 515.963 327.875 514.313 319.438 512.766ZM297.056 141.378C269.685 143.989 258.46 164.776 226.749 153.63L212.639 148.093C204.528 145.184 187.122 140.187 180.778 147.842C178.336 150.789 179.976 159.533 180.198 163.335C180.966 176.446 176.381 183.391 171.848 195.277L159.612 228.006C154.646 239.971 147.123 249.485 137.849 258.313C115.87 279.234 131.488 278.715 129.301 301.393C128.094 313.904 116.819 324.995 118.827 338.002C120.08 346.112 127.215 350.879 132.812 356.074C145.326 367.688 161.935 388.332 158.105 407.031C156.537 414.69 150.716 420.781 148.976 428.338C146.143 440.64 170.446 454.547 179.521 459.534L198.468 468.978C212.593 476.384 223.852 486.264 233.561 498.745C237.97 504.414 243.325 513.293 250.938 514.435L251.417 514.51C263.273 516.21 280.349 505.27 290.126 498.966C304.114 489.947 300.744 491.62 316.646 495.064C328.499 497.622 340.163 499.713 351.734 503.48C383.646 513.871 381.038 517.842 416.896 504.433C424.549 501.571 447.261 495.226 449.18 486.144C450.313 480.782 450.552 475.192 451.576 469.783C454.567 453.988 462.621 438.248 476.276 429.069C488.453 420.884 531.452 416.538 516.709 394.724L508.14 383.28C499.938 371.348 495.718 357.681 498.395 343.209C503.054 318.025 503.034 321.094 488.647 298.749C478.572 283.102 476.898 275.696 477.821 257.155C477.953 254.51 478.356 251.677 477.893 249.062L477.83 248.662C476.943 243.647 471.524 239.17 467.899 236.094C452.016 222.613 432.282 213.111 421.518 194.385C417.138 186.765 413.54 176.065 406.016 170.926C399.146 166.234 389.614 169.799 382.012 170.703C342.778 175.369 321.9 139.996 297.056 141.378Z"/>
	<path transform="scale(0.8 0.8)" d="M259.124 287.245L258.761 287.25C228.219 287.441 198.067 263.412 198.129 231.392C198.199 194.991 234.788 172.253 268.18 172.472C294.886 172.689 327.561 183.388 328.6 215.04C329.744 249.908 294.198 285.994 259.124 287.245ZM263.002 189.19C248.11 190.418 233.274 196.652 223.443 208.226C199.831 236.026 228.647 274.232 262.315 270.436L263.823 270.232C279.418 268.013 292.229 257.356 301.385 245.045C328.797 208.192 299.915 186.453 263.002 189.19Z"/>
	<path transform="scale(0.8 0.8)" d="M441.046 278.746C435.357 277.692 430.359 275.252 425.106 272.905C402.135 262.637 377.353 249.656 372.336 222.412C370.416 211.985 371.907 189.084 385.498 186.645L385.661 186.667C399.796 187.894 390.022 202.457 388.674 207.522C382.115 232.175 410.814 248.825 429.583 256.489C434.761 258.604 441.085 260.406 445.696 263.505C452.761 268.254 448.932 277.879 441.046 278.746Z"/>
	<path transform="scale(0.8 0.8)" d="M185.383 393.03C181.481 392.567 178.045 389.896 177.326 385.832C176.2 379.471 183.953 375.339 187.823 371.494C211.516 347.955 204.933 311.294 171.982 301.12C168.372 300.005 163.269 299.676 160.165 297.544C152.753 292.453 156.745 283.308 164.827 282.309C175.004 282.795 187.292 288.151 195.312 294.038C227.167 317.416 224.756 359.951 196.749 386.106C193.257 389.367 190.288 392.322 185.383 393.03Z"/>
	<path transform="scale(0.8 0.8)" d="M411.571 458.709C398.427 455.671 396.302 445.721 393.781 433.921C390.469 418.424 379.25 407.019 373.694 392.537C371.804 387.611 370.668 382.324 369.842 377.124L368.152 364.6C364.423 338.81 373.055 335.403 396.165 326.789L416.562 319.367C425.159 316.272 434.003 312.121 443.04 310.724C463.761 308.605 468.015 329.55 474.529 344.222C483.246 363.854 491.732 373.432 482.586 395.362C473.462 417.239 437.108 460.863 411.571 458.709ZM445.409 326.605C441.511 327.439 437.968 329.032 434.284 330.508L421.037 335.59C412.187 338.814 389.672 344.192 383.746 351.143L385.192 365.965C387.701 391.331 393.227 391.955 403.811 413.77C407.925 422.248 409.58 430.777 412.134 439.709C412.583 440.741 412.779 441.687 413.75 442.306C423.503 441.636 433.698 431.005 440.307 424.76C451.916 413.79 476.16 388.39 468.753 370.226C466.022 363.53 462.039 357.249 459.05 350.625L454.828 340.415C453.373 336.467 450.889 326.322 445.409 326.605Z"/>
	<path transform="scale(0.8 0.8)" d="M298.664 441.433C283.981 440.374 271.505 422.477 280.156 410.557C284.304 404.841 297.819 399.595 304.597 398.529L305.765 398.458C328.682 397.83 333.371 440.901 298.664 441.433ZM304.157 415.654C301.564 416.355 296.909 417.666 295.359 420.002C293.965 422.102 297.173 424.438 298.926 424.833C310.17 424.52 309.11 415.665 304.157 415.654Z"/>
	<path transform="scale(0.8 0.8)" d="M263.936 493.952C257.545 493.142 256.33 487.658 253.299 482.8C244.457 468.63 230.402 460.14 214.454 455.855C209.175 454.437 194.504 451.56 200.931 442.104C202.745 439.435 205.346 438.408 208.395 437.893C248.976 440.273 290.339 491.501 263.936 493.952Z"/>
</svg>
