<?xml version="1.0" encoding="utf-8" ?>
<svg xmlns="http://www.w3.org/2000/svg" xmlns:xlink="http://www.w3.org/1999/xlink" width="512" height="512">
	<path transform="scale(0.8 0.8)" d="M307.109 483.477L251.262 481.634C225.088 478.783 214.522 475.152 192.032 464.345C163.769 450.765 131.278 450.949 102.5 438.941C86.8116 432.395 72.8382 422.59 67.9224 405.627C64.2557 392.975 62.7355 390.695 57.2178 379.076C50.3034 364.516 55.8129 352.642 63.9093 340.515C67.7949 334.695 77.0163 327.539 78.2313 323.694C80.0782 317.849 65.3592 304.392 90.0078 285.211C97.9965 278.994 106.986 276.479 117.079 277.606L128.068 279.37C130.707 276.872 132.723 273.669 134.952 270.812C147.999 254.092 167.576 244.278 180.015 227.046C188.269 215.612 190.214 199.872 200.149 189.89C208.808 181.19 220.427 180.698 231.684 183.824C247.926 188.335 254.354 191.819 265.306 177.532L273.574 166.406C284.355 152.174 297.563 141.486 316.418 141.475C353.894 141.91 373.673 169.668 406.471 172.104C415.037 172.74 424.633 170.867 432.985 172.673L434.391 172.972C463.367 179.172 460.12 204.793 475.131 223.128C490.22 241.557 518.699 239.583 527.198 272.974C529.315 281.291 528.975 291.763 534.915 298.523C540.538 304.922 549.436 307.785 556.875 311.595C570.774 318.713 581.077 332.652 581.262 348.655C581.515 370.5 563.425 386.984 545.287 396.14C521.827 407.983 524.104 403.926 504.866 423.464C491.588 436.948 475.293 444.237 456.877 447.793C437.949 451.448 439.743 449.73 423.519 460.88C400.092 476.98 373.919 479.252 346.184 481.479L307.109 483.477ZM312.646 156.045C278.66 160.601 278.913 212.679 237.51 200.869C226.769 197.806 216.902 191.156 207.976 202.645C204.775 206.766 203.466 212.473 201.521 217.256C187.275 252.286 165.7 255.421 145.833 281.062C135.231 294.746 132.674 294.972 116.619 292.117C108.245 290.628 101.041 293.32 95.9463 300.094C92.2177 305.051 92.1653 310.752 89.5155 316.072C88.3946 318.323 86.1191 319.773 85.0529 321.892C90.0451 343.119 65.3291 354.501 68.4037 367.374C69.9682 373.924 74.0499 379.915 76.7375 386.05C79.5546 392.481 80.6732 399.478 83.4418 405.827C91.8332 425.068 123.28 431.109 141.224 434.876C160.304 438.882 180.488 442.739 198.194 451.269C203.617 453.882 208.748 457.152 214.375 459.326C231.12 465.796 258.429 468.822 277.01 469.27L314.992 469.33L365.469 465.251C378.077 463.745 390.936 461.738 402.586 456.444C414.153 451.188 423.189 441.844 435.384 437.664C440.84 435.794 446.541 435.021 452.189 433.971C473.62 429.989 484.02 424.296 499.103 408.831C510.687 396.954 514.801 394.125 529.76 387.492C545.089 380.696 568.255 368.085 566.978 348.199C565.04 318.03 523.606 324.7 516.274 292.969C513.557 281.207 513.4 270.54 504.425 261.221C487.396 243.54 470.018 249.781 455.906 219.168C451.179 208.916 447.615 194.583 436.879 188.989C426.956 183.819 413.3 187.311 402.469 186.109C369.26 182.425 344.095 153.52 313.293 155.99L312.646 156.045Z"/>
	<path transform="scale(0.8 0.8)" d="M389.605 269.931C368.971 269.273 353.437 252.861 345.343 235.026C340.728 224.857 342.623 219.246 352.282 214.607C360.906 210.466 370.581 208.893 380.076 208.591C409.201 207.423 443.414 227.424 416.094 257.753C408.745 265.912 400.458 269.355 389.605 269.931ZM376.029 223.247C369.935 223.927 364.153 225.212 358.567 227.803C364.51 241.789 377.052 259.211 394.502 254.883C402.865 252.26 410.37 244.166 411.704 235.362C406.922 224.104 386.196 222.361 376.029 223.247Z"/>
	<path transform="scale(0.8 0.8)" d="M284.141 326.703C258.15 328.997 202.374 278.898 223.157 251.992C227.944 245.795 234.904 243.294 242.414 242.301L242.914 242.246C288.565 237.623 337.959 322.345 284.141 326.703ZM242.927 256.638C228.528 258.91 232.512 271.471 238.755 280.62C247.365 293.238 267.153 312.906 283.955 312.482C299.402 309.816 292.332 294.611 286.515 285.687C276.821 270.816 261.885 256.029 242.927 256.638Z"/>
	<path transform="scale(0.8 0.8)" d="M376.671 439.977C373.707 440.059 371.531 439.635 368.868 438.265C348.872 427.973 330.939 405.394 324.332 384.139C315.267 354.976 339.275 321.394 363.173 306.96C374.028 300.403 391.967 294.69 404.59 299.779C419.194 305.667 427.04 328.767 436.36 340.976C447.8 355.963 470.803 367.868 489.688 361.91C502.892 357.744 502.813 347.068 498.51 335.858C488.314 309.291 469.505 285.53 440.998 278.429C435.552 277.073 424.749 275.505 431.079 266.406C432.413 264.489 434.163 263.688 436.379 263.203C451.06 262.334 472.811 275.509 483.253 285.338C499.085 300.24 523.662 339.929 512.604 361.296C497.78 389.939 450.627 376.559 431.379 357.42C424.994 351.072 419.527 342.95 415.156 335.122C406.595 319.789 402.623 307.54 382.437 313.936C358.11 321.645 329.738 354.333 338.439 380.938C345.236 401.718 360.682 417.361 379.736 427.131C386.067 430.377 382.868 438.459 376.671 439.977Z"/>
	<path transform="scale(0.8 0.8)" d="M120.663 336.042C116.769 331.129 111.722 320.876 120.643 318.045C131.457 314.614 133.346 344.454 153.698 327.487C166.071 317.171 170.45 300.278 171.869 284.844C172.346 279.665 173.368 276.283 178.911 274.732L179.255 274.716C183.998 274.575 187.011 278.28 186.855 282.87C186.012 307.776 170.741 347.828 140.501 346.7C132.046 346.384 126.205 342.035 120.663 336.042Z"/>
	<path transform="scale(0.8 0.8)" d="M137.916 409.219C121.488 410.532 100.433 397.428 96.2883 380.768C94.1917 372.339 95.7154 359.44 105.784 357.275C109.259 357.46 111.998 358.786 113.476 362.188C116.09 368.2 106.859 371.4 111.514 380.78C115.116 388.039 123.403 392.759 131.237 393.879C133.84 394.251 136.852 394.012 139.324 394.925C146.054 397.41 145.27 406.681 137.916 409.219Z"/>
	<path transform="scale(0.8 0.8)" d="M247.734 424.513C226.835 416.519 228.85 404.589 218.027 397.954C206.105 390.645 200.965 400.348 194.371 401.672C184.135 403.729 179.568 384.226 206.179 381.38C237.162 379.234 235.074 408.007 255.627 412.047C259.664 412.84 265.714 411.77 268.361 415.649C270.93 419.415 269.918 424.555 265.781 426.704C260.767 429.31 252.639 426.197 247.734 424.513Z"/>
</svg>
