<?xml version="1.0" encoding="utf-8" ?>
<svg xmlns="http://www.w3.org/2000/svg" xmlns:xlink="http://www.w3.org/1999/xlink" width="512" height="512">
	<path transform="scale(0.8 0.8)" d="M232.067 536.242C145.939 501.485 89.5777 417.689 89.7926 325.059C90.057 211.073 182.496 115.931 296.146 107.559C324.003 105.507 353.137 108.795 379.62 117.465L387.437 120.105C390.504 121.197 390.383 122.153 392.527 119.897C403.845 107.988 418.575 101.373 434.973 99.8163C464.765 97.5825 499.076 117.913 504.148 149.001L504.189 149.267C518.063 154.04 543.878 163.682 533.265 183.284C526.523 195.738 509.307 196.638 497.264 200.285C500.366 204.127 503.636 207.783 506.29 211.964C526.057 243.108 536.371 288.764 536.354 324.963L536.232 338.608C529.486 455.553 434.396 551.874 316.344 552.163C287.109 552.235 259.427 546.877 232.067 536.242ZM438.861 114.554C424.276 115.264 411.632 120.447 401.703 131.406C371.6 164.634 393.871 220.721 441.953 218.913C471.143 217.831 494.073 193.426 492.85 164.119C491.681 136.077 466.527 113.753 438.861 114.554ZM305.483 121.976C281.788 122.682 256.425 127.954 234.322 136.899C245.445 160.253 252.486 159.726 276.116 159.679C278.788 159.673 281.508 159.458 284.094 160.203L284.686 160.365C294.31 163.032 303.043 170.046 307.874 178.73C311.19 184.69 314.647 197.511 312.74 204.219C310.891 210.724 301.543 212.87 299.062 205.617C296.115 197.002 300.171 184.715 287.02 177.52C275.964 171.471 259.678 177.841 246.094 171.848C236.015 167.402 228.607 159.079 223.927 149.254L221.277 143.301C214.439 146.076 208.136 149.829 201.91 153.756C118.452 206.389 80.8815 308.537 118.744 401.902L119.236 403.107C124.949 402.167 130.644 401.28 136.193 399.576C167.391 389.994 185.952 357.234 194.895 327.858C202.803 301.882 193.191 293.394 167.957 284.355C155.672 279.955 129.883 274.665 127.057 259.815C125.828 253.359 131.653 250.238 137.285 253.019C139.495 254.11 141.403 256.283 143.395 257.76C160.229 270.235 183.594 270.256 199.477 284.652C214.914 298.644 214.215 312.853 209.035 331.283C197.267 373.161 171.112 410.434 125.47 417.114C140.637 448.506 157.719 468.934 184.032 491.534C187.169 489.338 190.257 487.075 193.698 485.369C224.842 469.933 270.813 473.754 304.393 479.722L325.074 484.422C338.091 488.221 349.033 493.369 358.507 503.33C363.365 508.438 369.962 517.413 360.34 521.761C354.363 524.462 352.503 519.725 349.415 515.582C338.747 501.27 319.415 497.717 302.969 494.666C273.023 489.111 243.786 486.559 213.701 493.762C207.909 495.148 202.647 496.615 197.757 500.129L197.575 500.489C235.04 530.036 292.635 541.45 339.06 536.098C461.128 522.026 542.939 399.978 517.416 280.665C512.747 258.836 502.596 231.705 489.702 212.951C463.403 239.191 419.324 242.083 392.532 215.21L387.588 209.773C382.507 229.405 389.738 266.453 414.391 269.482C423.331 270.581 433.673 269.402 442 265.969C445.104 264.689 448.677 262.406 452.043 262.169C456.619 261.847 460.531 266.069 459.72 270.596C458.751 275.995 450.099 278.649 445.723 280.162C422.41 288.22 396.622 287.188 382.507 264.219C370.944 245.4 366.142 219.1 377.349 199.023C365.562 195.335 348.055 190.209 344.328 176.719L344.185 176.217C340.001 160.639 360.241 152.199 371.954 149.475L376.203 148.098C377.458 143.391 379.735 138.864 381.647 134.396C370.018 129.342 357.63 126.467 345.14 124.501C338.384 123.438 331.458 122.498 324.629 122.155L305.483 121.976ZM371.974 164.844C362.947 167.797 352.292 171.904 366.422 179.086L375.228 182.888C374.542 179.688 373.825 176.533 373.474 173.273L372.914 164.993C372.253 164.73 372.569 164.751 371.974 164.844ZM507.812 165.339C507.507 171.664 506.49 177.474 505.392 183.677C508.5 182.754 511.747 181.882 514.624 180.354C517.05 178.821 518.906 177.452 520.545 175.04C517.885 170.668 512.544 167.155 507.812 165.339Z"/>
	<path transform="scale(0.8 0.8)" d="M342.116 321.896C322.041 316.855 290.867 304.473 285.612 281.559C284.941 278.634 284.792 275.617 284.336 272.656C282.494 260.718 265.002 259.843 255.703 257.566C231.251 251.579 232.295 242.078 225.888 223.438C220.984 209.168 207.97 204.394 193.75 206.527L183.814 208.489C179.374 209.157 174.479 207.343 174.175 202.188C173.574 192.022 189.276 191.936 196.115 191.381C222.31 188.093 236.452 203.982 242.274 226.948C244.676 236.424 243.925 239.045 253.885 241.879C271.367 246.854 293.986 247.087 298.906 268.777C300.132 274.18 299.667 280.352 303.216 284.91C313.923 298.662 339.508 307.22 355.781 309.364C362.973 310.312 366.721 319.019 359.714 323.425C355.719 325.937 346.424 322.864 342.116 321.896Z"/>
	<path transform="scale(0.8 0.8)" d="M427.291 454.242L445.381 447.62C450.333 446.187 459.64 446.031 461.121 452.597C462.949 460.699 452.35 460.868 447.524 462.398C444.474 463.365 441.59 464.865 438.641 466.094C412.316 477.065 399.17 468.024 375.73 457.794L354.834 448.674C339.893 442.235 313.341 432.23 329.882 410.859C339.529 398.397 363.995 388.036 379.219 384.811C383.153 383.977 409.222 381.618 410.829 379.249C410.874 379.184 409.934 367.547 410.395 364.824C413.129 348.657 435.154 341.153 449.044 339.499C464.686 336.38 488.405 346.178 499.627 356.643C504.759 361.428 504.349 368.652 497.243 370.2C491.936 371.357 486.566 364.869 482.367 362.156C467.107 352.297 438.478 349.381 426.035 365.705C421.433 371.742 427.807 378.248 423.108 385.469C414.898 398.082 394.944 397.103 381.797 399.814C368.445 402.566 347.802 410.418 339.787 422.566C344.493 430.438 372.961 440.153 381.904 444.105L395.286 450.27C406.216 455.487 415.169 457.61 427.291 454.242Z"/>
</svg>
