<?xml version="1.0" encoding="utf-8" ?>
<svg xmlns="http://www.w3.org/2000/svg" xmlns:xlink="http://www.w3.org/1999/xlink" style="fill:#fff" width="512" height="511">
	<path transform="scale(0.8 0.8)" d="M330.637 549.888C323.481 549.884 316.179 550.171 309.041 549.715C200.837 542.796 115.884 464.703 96.2214 359.864L93.7106 344.219C93.1211 341.211 93.1168 338.049 93.0049 335L92.7914 321.414C92.78 314.951 92.698 308.48 93.2075 302.031L94.4247 292.376C106.637 190.923 184.592 108.927 284.785 91.1529L294.695 89.6186C302.675 88.5404 309.065 87.9966 317.263 87.9001C325.425 87.8479 333.729 87.5536 341.865 88.2542C466.255 98.965 563.145 211.656 554.101 335.725C550.265 388.341 527.552 441.248 490.556 479.082C449.156 521.42 390.329 549.145 330.637 549.888ZM319.811 103.018C311.806 103.047 304.197 103.479 296.291 104.587L283.619 106.73C265.587 110.339 246.776 116.629 230.296 124.844C221.601 129.178 221.147 128.986 217.831 138.043C215.839 143.484 213.818 149.389 213.171 155.165C212.367 162.347 214.215 163.857 221.719 163.753C241.265 163.482 257.947 153.506 279.681 153.767C299.449 154.004 314.908 165.992 305.071 186.135C295.569 205.595 273.85 217.664 253.956 224.358L217.979 234.612C197.938 239.874 184.882 243.999 168.092 256.328C151.854 268.253 137.02 283.262 115.879 272.912L113.33 271.565C110.343 284.359 108.461 297.344 108.234 310.489C109.746 312.02 112.15 313.229 114.061 314.215C133.752 324.373 162.514 326.231 179.283 309.562C181.67 307.19 183.583 304.372 185.781 301.831C212.581 270.855 278.149 327.552 185.078 372.994C175.744 377.551 154.056 384.325 167.383 397.969C180.162 411.051 203.096 416.344 220.875 414.114C242.259 411.432 262.054 397.252 286.296 394.28C304.805 392.012 329.63 394.744 343.072 408.277C349.838 415.09 353.784 425.46 352.046 435.077C351.553 439.07 350.601 442.795 349.219 446.572L343.666 460.325C340.575 468.679 341.521 474.334 351.535 475.039C368.936 476.263 383.29 464.886 399.892 461.979C419.668 458.516 439.657 468.648 444.876 489.061C445.465 491.366 445.744 493.736 446.387 496.031C463.681 486.794 487.316 461.297 498.393 445.987C508.27 432.335 516.25 417.468 523.509 402.3C505.958 408.613 488.39 404.115 475.058 391.703C467.536 384.701 461.076 375.609 450.995 372.181C434.52 366.579 411.714 389.528 387.137 366.784C380.484 360.628 376.01 352.059 370.338 344.98L359.768 332.951C351.876 324.322 344.954 316.499 350.954 304.426C366.429 273.285 431.854 264.791 462.231 266.297L474.073 266.744C481.16 266.926 484.803 266.599 484.107 257.613C482.823 241.036 471.866 221.516 456.385 214.871C452.077 213.022 446.785 213.753 442.205 214.145L422.008 215.736C393.784 216.569 390.922 201.282 400.838 178.248C407.859 161.942 419.805 144.747 434.44 134.386C412.982 121.653 390.425 112.292 365.938 107.217L344.53 103.715C340.998 102.982 336.994 103.069 333.389 103.044L319.811 103.018ZM200.428 142.656C170.502 163.208 148.054 190.057 131.08 222.065L124.222 236.676C121.235 243.762 114.139 258.523 126.675 260.297L127.683 260.442C136.25 261.668 145.124 254.154 151.568 249.379L164.427 240.228C173.13 234.653 181.676 229.586 191.485 226.14C219.875 217.017 276.419 209.198 290.818 180.985C299.423 164.124 271.872 168.944 263.296 170.872C248.224 174.261 221.222 184.225 207.031 176.234C197.611 170.93 196.258 159.295 198.696 149.688C199.012 148.447 201.444 143.316 200.428 142.656ZM447.662 143.759C431.612 155.447 415.018 174.307 411.691 194.714C410.108 204.423 420.02 200.505 427.076 199.833C435.435 199.038 444.822 197.649 453.179 198.659C481.164 202.04 499.285 235.12 498.838 260.859C498.33 290.154 463.365 280.476 444.44 281.272C423.457 282.156 369.084 292.916 364.31 312.441C366.414 321.083 376.695 328.329 382.191 335.135C388.555 343.015 392.76 353.174 401.719 358.602L402.703 359.159C416.88 365.383 425.326 358.679 438.331 356.244C452.39 353.611 465.679 360.917 475.388 370.581C479.808 374.981 483.66 380.078 488.645 383.867C501.797 393.864 517.53 390.396 529.957 380.84C535.262 376.761 539.248 327.796 539.231 319.374C539.107 255.595 509.653 193.943 460.675 153.342C456.546 149.92 452.333 146.418 447.662 143.759ZM203.26 308.812C196.785 311.81 192.861 318.639 187.44 323.177C167.929 339.505 142.419 341.056 119.409 332.611L111.518 329.509C110.262 328.992 109.292 328.852 108.355 327.802C109.369 406.289 158.022 477.811 227.212 512.656L244.572 520.567C245.117 516.964 245.655 513.368 246.799 509.894C249.428 501.912 261.273 484.017 271.719 485.694C275.493 486.3 279.045 491.374 277.919 495.141C275.541 503.1 258.141 503.716 260.245 525.391C265.843 527.772 272.183 528.771 278.125 530.027C298.188 534.266 323.054 536.252 343.75 534.213L355.956 532.451C364.66 531.144 373.64 529.427 382.056 526.81C391.426 524.162 426.304 513.066 430.617 504.021C435.08 494.66 425.625 481.357 416.406 477.843C402.8 472.656 386.998 483.075 374.219 487.149C348.3 495.412 317.166 486.947 329.219 455.101C332.652 446.03 340.022 434.285 335.85 424.473C330.428 411.723 311.262 409.255 299.272 409.281C268.662 409.345 250.635 424.701 223.569 429.018C199.71 432.823 160.723 422.833 150.306 399.993C145.221 388.846 148.944 376.769 158.625 369.665C163.476 366.105 169.37 363.841 174.754 361.216C189.48 354.039 206.562 344.475 215.387 330.25C222.376 318.983 215.343 307.258 203.26 308.812Z"/>
	<path transform="scale(0.8 0.8)" d="M254.255 148.486C243.24 153.082 237.687 142.63 242.659 137.469C245.872 134.134 251.456 132.416 255.663 130.67C277.237 121.718 298.531 116.822 322.108 116.839C324.897 116.65 328.994 116.398 331.628 117.295L332.031 117.446C337.892 119.605 338.374 127.097 333.541 130.533L333.184 130.781C330.46 132.705 326.587 131.952 323.432 131.977C303.383 132.132 282.663 135.199 264.269 143.424L254.255 148.486Z"/>
</svg>
