<?xml version="1.0" encoding="utf-8" ?>
<svg xmlns="http://www.w3.org/2000/svg" xmlns:xlink="http://www.w3.org/1999/xlink" width="512" height="512">
	<path transform="scale(0.8 0.8)" d="M334.531 552.248C305.383 552.561 276.316 549.091 248.622 539.674C182.059 517.039 127.137 460.577 105.897 393.5C98.6054 370.474 94.7633 347.468 94.7282 323.401C94.7118 312.161 94.9393 304.595 96.5267 293.594L100.083 273.72C123.653 168.966 213.22 90.8305 320.813 87.896C329.931 87.7827 339.281 87.5217 348.372 88.3161C473.121 99.2171 569.141 212.837 559.627 336.811C554.6 402.306 521.85 464.583 469.574 504.577C431.787 533.485 382.205 551.909 334.531 552.248ZM317.286 103.443C294.161 104.426 270.817 109.818 249.133 117.814C261.191 140.684 280.126 156.273 307.942 151.862C313.395 150.997 318.739 149.183 324.094 147.858C348.283 141.869 367.992 143.654 388.321 157.785C397.557 164.141 407.763 172.055 419.688 169.956C434.033 167.431 442.614 152.174 451.589 142.194C414.289 116.522 362.986 99.7504 317.286 103.443ZM234.298 125.156C208.144 137.653 165.625 168.844 151.738 195.979C158.14 194.507 163.345 191.139 169.375 188.743C186.692 181.862 205.981 182.166 221.918 192.255C225.985 194.829 229.36 198.222 233.136 201.164C264.765 225.81 283.326 188.188 308.886 204.215C318.798 210.431 339.267 234.149 341.981 246.286C343.547 253.285 332.722 260.972 325.897 248.462L322.015 241.643C317.291 233.974 303.67 213.976 293.029 215.471C287.544 216.242 281.864 219.884 276.65 221.856C257.884 228.952 239.27 224.757 223.24 213.334C210.317 204.126 204.998 196.98 185.934 200.106C168.903 202.899 161.073 216.47 141.622 209.928L127.914 236.924C117.43 260.908 110.339 290.546 110.26 316.572C110.225 328.263 108.606 339.818 120.638 345.952C142.989 357.345 173.761 333.675 185.811 316.192C190.793 308.964 194.613 301.09 198.781 293.387C203.841 284.596 211.18 274.992 221.497 272.235C234.417 268.782 243.691 276.885 252.81 284.52C272.217 300.77 284.082 309.413 310.156 312.183C321.391 313.377 331.11 314.338 340.853 320.646C344.103 322.751 347.087 325.238 350.404 327.251C376.563 343.124 408.372 332.018 425.431 308.167L433.792 295.932C458.548 263.131 505.24 258.959 540.233 277.556C530.474 227.86 502.696 183.233 463.615 151.297C453.309 165.622 441.71 182.208 422.983 185.183C394.414 189.722 385.387 168.7 363.627 162.363C344.372 156.755 329.271 163.599 311.078 167.046C278.821 173.157 251.674 154.914 236.717 127.607C236.047 126.384 235.802 125.031 234.298 125.156ZM491.758 282.32C474.235 283.572 459.608 289.591 447.948 303.143C442.853 309.063 439.079 316.066 434.255 322.214C413.2 349.048 372.553 359.989 343.032 340.977C337.005 337.096 331.295 332.661 324.331 330.577C312.667 327.086 300.179 327.344 288.414 324.147C274.792 320.444 263.275 312.606 252.411 303.847L240.994 294.432C218.456 276.498 213.844 300.183 203.862 316.871C189.394 341.059 166.036 362.046 136.735 364.199C128.941 364.771 120.733 364.022 113.76 360.202C118.713 384.797 125.398 404.867 137.707 426.592C153.161 407.711 165.058 387.321 191.994 384.672C206.292 383.266 229.368 389.064 240.928 398.313C247.354 403.454 243.444 412.056 235.485 412.42C233.111 412.529 230.581 410.483 228.635 409.288C209.7 397.662 185.93 395.4 169.615 411.963L145.847 441.165L148.82 445.156C160.358 461.47 174.782 478.598 191.383 490.02C209.609 472.194 233.296 476.069 250.09 493.647C255.163 498.956 256.889 505.855 260.718 511.899C266.434 520.921 278.562 529.798 289.18 532.544C293.096 533.556 311.505 536.484 315.86 536.627L331.12 536.672C370.864 536.617 406.622 525.529 440.783 505.011L453.251 497.253C442.547 490.73 434.231 494.787 423.976 499.426C416.336 502.883 390.687 511.237 382.627 506.719C376.395 503.225 376.838 492.969 384.588 491.927C390.982 491.067 397.278 492.69 403.803 490.974C425.146 485.359 437.183 467.589 462.882 485.205C463.476 485.612 465.193 487.037 465.812 487.09C467.047 487.196 477.718 476.829 479.085 475.477C515.656 439.276 540.263 389.336 544.114 337.75C544.543 332 545.231 299.602 543.496 297.865C533.64 287.994 505.414 281.326 492.073 282.279L491.758 282.32ZM217.499 494.175C211.946 494.855 208.091 496.43 203.633 499.824L240.799 520.294L249.914 524.186C242.234 511.86 236.326 492.672 217.499 494.175Z"/>
	<path transform="scale(0.8 0.8)" d="M485.12 403.514C488.319 410.442 489.484 416.671 480.64 418.853C461.704 414.323 457.938 366.17 491.445 362.937C509.496 361.346 524.887 380.462 511.479 385.444C506.315 387.363 501.744 381.726 497.356 379.838C491.888 377.486 484.99 379.757 482.787 385.515C480.521 391.438 482.651 398.031 485.12 403.514Z"/>
	<path transform="scale(0.8 0.8)" d="M411.027 385.774C402.613 389.983 392.9 403.537 385.378 398.875C376.942 393.646 384.554 386.061 389.592 381.771C396.776 375.653 403.498 370.701 412.933 368.831C416.614 368.497 419.855 368.409 423.282 370.009C431.028 373.626 448.026 396.079 433.789 400.559C421.353 404.472 425.388 380.553 411.027 385.774Z"/>
	<path transform="scale(0.8 0.8)" d="M348.203 459.209C332.802 464.634 315.869 462.191 301.728 454.444C289.681 447.844 277.603 438.329 263.16 445.105C257.396 447.809 249.688 454.315 245.349 445.156C239.825 433.494 263.529 427.932 271.65 427.319C287.131 426.252 295.596 432.965 308.101 439.906C322.345 447.813 338.072 449.221 352.216 439.729C354.777 438.01 357.012 435.621 359.698 434.13C366.384 430.418 378.481 438.921 366.27 448.849C360.792 453.303 354.797 456.72 348.203 459.209Z"/>
</svg>
