<?xml version="1.0" encoding="utf-8" ?>
<svg xmlns="http://www.w3.org/2000/svg" xmlns:xlink="http://www.w3.org/1999/xlink" width="512" height="512">
	<path transform="scale(0.8 0.8)" d="M312.571 534.727C290.875 540.811 268.408 534.09 251.468 519.673C242.781 512.279 236.289 503.094 228.209 495.201C225.689 492.74 224.739 492.69 221.21 492.572L212.013 492.444C186.421 492.346 165.562 494.418 144.182 476.383C131.744 465.892 119.998 452.004 118.801 435.164C117.801 421.104 120.48 405.613 113.366 392.656C104.701 376.876 77.9149 370.326 76.6629 352.344C75.662 337.968 83.486 325.886 90.3233 313.868L103.302 290.101C114.632 267.348 117.416 251.53 117.151 226.927C116.83 197.17 120.681 194.607 145.312 182.767C169.429 171.175 179.769 149.694 208.568 142.8C215.66 141.102 223.553 141.521 230.759 142.025C246.39 143.118 248.742 138.146 261.552 129.075C282.301 114.381 298.989 106.065 324.444 104.524C342.43 103.71 360.585 106.939 376.848 114.842C398.871 125.544 414.408 140.061 440.469 135.871C454.712 133.581 461.627 130.478 475 137.441C500.974 150.964 512.664 188.64 519.051 215.416C521.639 226.267 523.089 237.757 528.32 247.755C536.182 262.784 554.964 275.096 559.496 289.827C566.418 312.328 543.924 344.332 536.75 368.283C530.407 389.46 534.789 419.432 515.902 435.001C510.314 439.608 503.391 443.154 497.188 446.892C488.637 452.044 480.5 457.454 472.688 463.684C453.324 479.126 438.217 502.496 414.419 511.597C395.645 518.776 375.528 513.326 356.309 517.43C342.695 520.337 327.364 530.241 312.571 534.727ZM326.42 120.469C303.971 120.422 285.172 132.297 267.777 145.089C247.204 160.218 249.43 159.441 223.818 157.919C195.006 156.206 178.408 184.803 152.871 197.366C139.454 203.967 132.243 203.298 132.891 220.889C134.11 253.998 132.089 269.923 116.119 300.926L102.628 325.445C98.9487 332.141 93.6839 339.596 92.8671 347.344C91.8797 356.71 106.432 362.836 112.544 367.435C127.357 378.581 133.316 394.404 134.243 412.316L134.758 430.582C134.943 433.305 135.053 436.164 135.844 438.789C141.205 456.564 164.147 474.306 182.344 475.927C195.094 477.063 219.325 477.22 231.284 473.346C254.83 465.72 275.445 467.196 296.762 481.581C301.299 484.642 307.84 488.223 306.86 494.688C305.79 501.746 298.723 503.44 292.851 499.219L286.161 494.393C274.319 486.446 256.731 481.876 242.799 486.467L250.214 495.759C260.976 508.117 275.144 519.544 292.14 520.845C314.343 522.545 332.482 505.779 353.443 501.405C370.582 497.829 388.421 502.213 405.245 497.381C421.223 492.791 432.232 479.15 443.538 467.863C455.506 455.913 468.852 444.999 483.292 436.153C516.999 415.505 512.573 416.41 517.74 380.002C518.994 371.163 521.385 362.264 524.447 353.885L541.024 315.523C546.296 302.058 546.461 295.257 536.312 283.749L524.597 271.012C511.21 255.253 508.721 242.867 504.294 223.344C499.708 203.121 485.006 150.752 459.949 149.324C453.946 148.982 448.128 150.474 442.267 151.533C421.348 155.314 406.061 149.872 388.036 139.756L372.477 131.075C358.374 124.082 342.276 119.695 326.42 120.469Z"/>
	<path transform="scale(0.8 0.8)" d="M321.764 167.075C316.916 169.494 312.368 172.393 307.971 175.546L298.975 182.445C294.699 185.929 287.524 194.243 281.25 189.999C270.667 182.841 282.912 174.436 288.207 170.183C300.364 160.418 314.084 149.876 329.971 147.93C357.223 143.72 385.415 178.945 368.767 186.094C359.861 189.918 357.323 178.728 353.315 173.581C345.01 162.917 333.613 161.871 321.764 167.075Z"/>
	<path transform="scale(0.8 0.8)" d="M483.099 241.635C475.566 241.663 473.543 235.275 470.115 229.661C465.605 222.274 460.249 215.495 454.014 209.491C449.288 204.94 441.333 199.728 445.436 192.124C446.595 189.975 448.567 189.062 450.819 188.489C457.004 188.008 459.352 191.646 463.345 195.737C469.513 202.059 502.852 235.536 483.099 241.635Z"/>
	<path transform="scale(0.8 0.8)" d="M236.597 233.119C231.525 236.259 226.266 239.543 220.506 241.236C188.898 250.525 163.921 211.936 184.633 207.233L186.511 207.246C193.75 207.546 193.052 217.208 197.091 221.347C203.61 228.026 215.363 226.934 222.824 222.611C227 220.191 231.138 215.925 236.312 216.251C241.114 216.554 243.908 221.354 243.093 225.853C242.531 228.954 238.995 231.445 236.597 233.119Z"/>
	<path transform="scale(0.8 0.8)" d="M326.951 372.443C297.712 374.634 277.496 356.504 274.862 327.314C270.68 280.964 312.979 228.159 359.717 223.878C385.612 221.469 407.799 238.994 410.748 265.138C416.027 311.946 374.507 367.33 326.951 372.443ZM360.838 240.123C293.654 247.748 261.266 359.893 325.797 356.207C363.695 350.729 400.015 304.551 394.367 266.464C391.782 249.032 378.37 238.321 360.838 240.123Z"/>
	<path transform="scale(0.8 0.8)" d="M233.934 323.188C225.756 323.254 223.86 317.387 224.301 309.955C225.438 290.805 240.946 256.935 260.102 249.718C265.68 249.453 271.775 254.187 269.14 260.322C268.14 262.652 265.731 264.517 263.894 266.195L257.26 272.59C248.38 281.862 242.006 294.469 240.865 307.293C240.269 313.984 241.536 320.536 233.934 323.188Z"/>
	<path transform="scale(0.8 0.8)" d="M508.124 326.237C498.608 326.413 488.859 321.848 480.237 318.218C462.254 310.646 446.98 299.04 439.533 280.383C436.762 273.441 436.207 266.277 444.126 263.162C451.445 262.824 453.199 269.014 455.3 274.844C461.366 291.669 478.065 300.31 494.004 305.777C498.806 307.424 504.165 308.549 508.733 310.711C516.097 314.195 516.918 323.676 508.124 326.237Z"/>
	<path transform="scale(0.8 0.8)" d="M137.011 349.74C131.375 348.796 126.318 343.544 129.482 337.648C134.028 329.179 165.022 336.606 170.914 306.694C172.281 299.752 171.647 293.784 179.838 291.623C189.311 291.457 188.599 300.936 187.461 307.311C182.892 332.902 162.854 348.451 137.011 349.74Z"/>
	<path transform="scale(0.8 0.8)" d="M487.185 409.836C481.363 407.728 478.85 402.041 475.512 397.223C465.532 382.818 453.438 367.603 435.03 364.676C430.757 363.996 419.825 365.144 416.699 363.397C408.269 358.688 410.957 349.199 420.611 347.922L421.002 347.885C451.303 346.215 468.048 359.879 485.988 383.509C490.775 389.814 504.995 409.463 487.185 409.836Z"/>
	<path transform="scale(0.8 0.8)" d="M224.535 405.719C201.761 400.09 191.437 425.135 183.24 427.099C175.805 428.881 169.604 420.111 174.686 413.911C184.123 402.397 200.088 390.243 214.988 388.881C230.45 386.745 244.711 395.978 253.538 408.009C256.741 412.375 262.263 420.368 261.155 426.133C260.27 430.735 255.582 433.789 251.029 432.395C243.499 430.089 242.633 411.117 224.535 405.719Z"/>
	<path transform="scale(0.8 0.8)" d="M404.763 461.859C402.071 462.639 398.97 462.392 396.201 462.332C368.359 461.727 350.392 453.11 339.848 425.576C336.748 417.483 332.218 404.372 342.915 400.357C351.797 399.95 352.256 405.745 353.417 413.281C356.812 435.311 372.914 445.575 394.712 445.584C398.075 445.586 402.237 444.784 405.487 445.555C414.389 447.668 412.686 458.593 404.763 461.859Z"/>
</svg>
