<?xml version="1.0" encoding="utf-8" ?>
<svg xmlns="http://www.w3.org/2000/svg" xmlns:xlink="http://www.w3.org/1999/xlink" width="512" height="512">
	<path transform="scale(0.8 0.8)" d="M331.328 534.828C311.844 529.041 293.879 519.533 274.078 514.497C253.92 509.371 233.22 507.208 212.832 503.296C187.927 498.517 163.635 491.229 139.849 482.495C102.723 468.861 75.5897 457.949 93.758 413.281C96.7145 406.012 100.767 398.948 102.513 391.255C109.365 361.077 79.4186 353.974 74.7084 331.951L74.1379 328.516C73.2044 314.597 88.4123 295.41 99.1489 288.002C104.551 284.275 104.865 280.77 107.616 275.015L114.9 261.041C131.558 230.412 158.919 199.422 189.15 181.202C201.774 173.594 215.372 167.154 227.184 158.274C252.295 139.396 260.859 111.003 297.034 108.569C305.311 107.859 313.778 110.27 321.524 113.02C341.867 120.241 347.111 123.95 368.744 123.888L389.703 123.798C415.386 123.695 427.639 132.066 443.234 153.384C462.614 179.876 473.618 173.37 495.304 189.972C511.759 202.569 514.648 224.121 517.312 243.316C519.984 262.568 524.862 272.184 537.167 287.812C549.333 303.263 554.828 310.709 560.857 329.942C566.708 348.607 569.151 363.695 558.284 380.731C553.197 388.706 545.663 394.732 541.515 403.374C534.421 418.154 537.593 434.638 526.243 448.091C519.896 455.616 510.902 460.105 503.532 466.477C499.327 470.113 495.652 474.445 491.865 478.501C470.357 501.541 447.333 505.257 418.853 515.75L396.348 524.225C373.297 533.352 356.335 541.496 331.328 534.828ZM297.278 123.876C283.426 125.357 274.72 131.152 265.73 141.221L253.072 155.775C238.855 171.534 219.916 181.015 201.868 191.604C170.387 210.073 144.184 238.401 127.139 270.625C117.334 289.162 117.309 289.553 102.728 305.009C81.0991 327.935 90.2577 332.171 107.306 350.481C115.309 359.076 157.775 407.564 148.375 419.964C144.675 424.845 138.174 424.121 135.307 418.75C133.588 415.53 132.698 411.863 131.193 408.529C127.887 401.207 123.542 394.113 118.898 387.577C117.949 392.673 116.812 397.594 114.968 402.454C110.889 413.208 98.177 436.247 105.739 447.546C114.48 460.609 167.962 476.535 184.73 481.018L283.518 501.122L307.628 509.549C344.464 524.358 347.27 527.026 386.192 511.84L415.625 500.603C435.527 493.233 457.725 488.976 474.015 474.43C481.43 467.808 487.611 459.903 495.201 453.443L505.781 445.136C520.087 434.757 519.027 433.075 522.226 415.312C523.373 408.944 524.958 402.554 527.819 396.719C539.126 373.661 557.102 374.183 548.672 342.26C543.365 322.161 538.633 314.284 526.253 298.472C518.889 289.067 511.929 279.015 507.396 267.91C499.691 249.032 503.726 227.417 492.44 209.668C486.806 200.809 478.252 197.291 469.049 193.032C455.356 186.695 443.902 179.792 434.691 167.669C426.048 156.294 419.247 145.244 404.751 140.52L403.128 140.033C395.705 137.991 388.798 139.019 381.286 139.396C365.504 140.189 350.403 139.712 335.32 134.594C323.353 130.533 310.272 122.536 297.278 123.876Z"/>
	<path transform="scale(0.8 0.8)" d="M338.461 202.843C324.511 202.914 312.445 194.881 309.415 180.731L309.295 180.156C305.444 162.485 318.734 147.941 335.947 146.696C373.563 147.789 374.457 199.81 338.461 202.843ZM335.094 162.257C317.532 165.587 322.105 188.767 339.132 187.441C355.279 183.079 352.68 161.627 335.094 162.257Z"/>
	<path transform="scale(0.8 0.8)" d="M212.266 342.555C198.02 343.435 182.801 339.924 171.748 330.531C130.456 295.441 164.374 232.672 207.32 219.309C212.886 217.577 218.442 216.845 224.234 216.381L224.571 216.31C259.643 214.417 287.352 242.85 281.951 278.438C276.886 311.813 245.678 340.012 212.266 342.555ZM223.287 231.677C194.084 235.006 164.95 266.615 168.629 296.846C171.177 317.782 192.778 329.306 212.293 327.374C241.071 324.45 269.987 295.524 266.859 265.459C264.523 243.011 245.077 229.852 223.287 231.677Z"/>
	<path transform="scale(0.8 0.8)" d="M424.784 332.685C406.733 333.555 392.631 330.05 377.896 318.67C339.108 288.711 352.359 222.609 405.179 216.998C455.211 213.473 495.535 273.938 462.933 313.774C453.296 325.549 439.626 331.226 424.784 332.685ZM407.177 232.002C353.099 237.598 360.545 320.864 423.177 317.468C466.274 312.126 470.692 266.255 437.787 241.707C429.377 235.432 417.876 230.648 407.177 232.002Z"/>
	<path transform="scale(0.8 0.8)" d="M349.322 488.133C327.589 488.23 307.996 483.093 291.07 468.501C241.716 425.954 264.47 348.844 329.559 344.822C349.013 344.378 364.817 350.52 379.559 363.69C395.774 378.177 412.122 404.913 413.252 426.843C415.155 463.773 383.769 486.521 349.322 488.133ZM331.365 360.174C279.164 362.735 261.622 421.797 301.022 457.014C313.718 468.362 329.262 472.861 345.881 472.866C389.104 471.801 410.825 440.949 388.893 400.485C376.657 377.909 358.098 360.031 331.365 360.174Z"/>
	<path transform="scale(0.8 0.8)" d="M474.909 404.179C446.715 406.438 443.162 365.433 471.254 361.669C482.258 360.92 491.539 368.172 493.736 378.995L494.009 380.421C495.839 392.592 486.528 402.647 474.909 404.179ZM472.342 377.219C464.144 379.767 464.75 388.716 473.749 388.892C481.121 386.263 480.907 376.948 472.342 377.219Z"/>
	<path transform="scale(0.8 0.8)" d="M232.167 438.922C227.985 438.685 224.208 435.495 220.727 433.277C216.488 430.575 210.326 433.366 205.938 431.058C198.741 427.275 200.265 418.294 209.745 416.309C233.524 414.558 251.154 436.836 232.167 438.922Z"/>
</svg>
