<?xml version="1.0" encoding="utf-8" ?>
<svg xmlns="http://www.w3.org/2000/svg" xmlns:xlink="http://www.w3.org/1999/xlink" width="512" height="512">
	<path transform="scale(0.8 0.8)" d="M294.927 534.011C268.098 529.986 260.281 521.98 238.119 512.286C227.627 507.696 216.684 504.598 206.043 500.45C175.415 488.508 146.575 465.112 133.707 434.165L129.218 422.094C124.908 409.991 122.445 411.079 113.4 403.191C99.8642 391.385 95.1353 370.605 97.8685 353.2C100.097 339.01 105.746 330.64 95.5248 318.08C88.6893 309.681 79.9803 300.864 79.2966 289.464C78.1075 269.636 94.0198 257.816 106.22 244.831C124.108 225.791 123.418 201.753 137.191 186.265C151.204 170.508 173.999 170.799 192.032 162.294C206.262 155.583 217.142 143.923 231.885 138.054C239.959 134.84 248.617 132.98 257.217 131.868C278.474 129.118 279.641 127.855 298.157 116.583C312.911 107.602 329.503 103.964 346.555 102.931L366.022 103.451C401.531 107.3 435.013 126.517 455.655 155.719C463.077 166.218 467.912 177.953 476.289 187.908C482.175 194.902 489.491 200.213 496.421 206.079C520.629 226.569 530.877 252.971 536.6 283.785C539.598 299.931 542.084 314.848 550.926 328.959C561.711 346.17 569.538 356.856 559.769 376.546C548.742 398.775 522.645 404.057 507.557 422.601C490.043 444.127 484.549 469.445 461.365 487.264C434.802 507.68 408.442 498.812 385.985 512.081C381.199 514.909 376.903 518.504 372.09 521.306C348.558 535.006 321.462 537.417 294.927 534.011ZM344.87 118.129C331.921 119.429 319.018 122.092 307.693 128.772C298.746 134.05 290.748 139.853 280.812 143.335C267.457 148.015 252.83 146.167 239.708 151.419C229.922 155.335 222.222 161.864 213.674 167.748C203.183 174.97 192.112 179.686 179.868 183.034C147.729 191.82 148.96 191.464 137.646 221.139C132.628 234.302 125.876 246.368 116.222 256.719C107.854 265.692 93.7223 274.329 94.9113 288.448C95.9776 301.109 115.98 310.703 117.439 332.099C119.664 332.337 122.37 331.79 124.633 331.682C142.872 330.812 161.841 336.482 174.728 349.904C178.198 353.517 181.148 357.585 184.564 361.24C214.086 392.831 261.317 361.777 299.657 398.064C303.2 401.417 306.129 405.313 309.582 408.724C326.771 425.701 348.231 419.093 368.939 424.357C388.822 429.411 401.636 446.829 418.939 449.464C422.748 450.044 427.818 449.809 430.492 453.027C433.028 456.078 433.046 461.337 429.84 463.94C422.524 469.882 402.034 460.82 395.628 456.751C383.818 449.248 372.688 439.454 358.197 437.85C353.548 437.336 348.744 437.736 344.067 437.498C329.04 436.735 313.366 432.688 301.947 422.421C296.107 417.17 291.279 410.829 285.069 405.981C251.567 379.83 210.019 408.619 174.352 373.226C170.608 369.51 167.561 365.17 163.969 361.325C152.503 349.047 130.4 344.299 114.194 347.668C113.417 350.543 113.163 353.34 112.862 356.29L112.793 363.918C112.963 376.704 117.529 387.145 127.976 395.015C141.207 404.983 141.101 412.031 147.181 426.598C155.451 446.409 171.449 463.783 189.531 475.205C205.865 485.522 225.008 489.852 242.611 497.439C254.458 502.544 265.514 509.779 277.656 514.049C304.342 523.434 338.688 523.669 363.51 508.488C371.649 503.51 378.739 497.89 387.739 494.283C416.1 482.913 443.912 492.637 465.042 461.562C482.375 436.071 488.504 413.739 515.052 395.384C527.783 386.582 551.628 375.57 548.471 356.334L548.408 355.973C547.772 352.537 545.797 349.41 543.959 346.497L536.406 334.882C534.503 331.82 532.908 328.418 530.766 325.528C506.204 318.575 487.976 296.04 486.03 270.615C485.519 263.941 486.629 252.896 496.143 256.235C502.404 258.432 501.352 266.892 501.739 272.085C502.862 287.168 512.913 298.093 524.855 305.947C521.339 275.672 512.726 241.806 489.618 220.789L473.173 206.98C457.975 193.409 452.32 177.1 440.619 161.355C418.013 130.934 381.848 117.045 344.87 118.129Z"/>
	<path transform="scale(0.8 0.8)" d="M440.189 211.746C432.983 214.638 421.858 215.501 414.142 214.473C384.06 210.464 360.396 185.321 357.7 155.222C357.413 152.017 357.185 148.506 357.675 145.317L357.754 144.844C358.355 141 360.123 138.487 363.831 136.937C370.107 136.542 372.826 139.543 372.855 145.34L372.933 152.604C374.464 183.367 404.009 205.521 434.064 197.168C447.795 193.352 451.058 206.852 440.189 211.746Z"/>
	<path transform="scale(0.8 0.8)" d="M174.581 229.059C167.204 225.765 164.105 217.465 172.241 213.762C177.659 211.297 182.556 215.084 187.5 216.889C206.824 223.944 228.982 209.759 233.004 189.484C234.361 182.641 232.833 176.622 241.467 174.77C254.99 175.655 248.469 194.745 245.328 202.175C233.309 230.613 202.398 240.807 174.581 229.059Z"/>
	<path transform="scale(0.8 0.8)" d="M167 312.544C162.781 313.261 159.442 311.265 156.084 308.928C139.749 297.558 134.213 276.975 139.517 258.057C140.628 254.093 142.225 250.881 145.932 248.817C160.411 246.691 154.519 260.263 153.451 267.328C149.57 293.004 169.198 295.056 172.082 301.478C174.077 305.919 171.115 310.792 167 312.544Z"/>
	<path transform="scale(0.8 0.8)" d="M299.913 352.747C273.737 353.433 250.629 333.069 249.181 306.719C247.651 278.899 269.486 256.662 296.824 255.131C308.001 254.838 320.147 258.63 328.833 265.736C360.725 291.827 348.524 342.364 309.346 351.534C306.262 352.256 303.061 352.479 299.913 352.747ZM295.161 270.742C251.499 276.069 255.956 339.821 301.324 337.124C346.59 331.301 337.854 267.985 295.198 270.734L295.161 270.742Z"/>
	<path transform="scale(0.8 0.8)" d="M432.531 376.897C378.914 377.326 374.243 300.36 429.9 296.388C462.606 293.434 484.967 336.481 460.472 364.193C453.318 372.287 443.099 376.211 432.531 376.897ZM427.993 311.981C395.154 316.38 400.228 364.193 434.064 361.544C465.969 356.151 460.708 309.491 428.066 311.967L427.993 311.981Z"/>
	<path transform="scale(0.8 0.8)" d="M310.442 503.76C303.783 503.933 297.164 500.608 291.245 497.845C265.145 485.661 242.474 467.312 214.273 459.723L203.796 457.432C199.256 456.622 192.556 456.656 191.338 450.974C190.217 445.745 193.33 441.924 198.353 441.03C211.427 440.337 237.795 451.142 248.88 456.823L292.877 481.268C296.586 483.124 300.554 485.144 304.505 486.394C307.217 487.252 310.606 487.371 313.089 488.674C320.527 492.578 317.721 501.757 310.442 503.76Z"/>
</svg>
