<?xml version="1.0" encoding="utf-8" ?>
<svg xmlns="http://www.w3.org/2000/svg" xmlns:xlink="http://www.w3.org/1999/xlink" width="512" height="512">
	<path transform="scale(0.8 0.8)" d="M302.614 541.849C270.538 540.099 239.117 530.851 211.048 515.34C207.619 513.445 205.828 510.62 201.956 512.039L186.323 517.86C175.54 521.432 164.354 524.036 153.116 525.677C120.431 530.452 78.4465 525.354 73.2933 484.751C69.8493 457.616 80.9997 429.824 93.9586 406.651L103.322 391.319C106.252 386.892 105.61 388.267 104.014 383.209L100.984 372.523C95.2035 349.801 92.4096 326.05 94.3309 302.59C103.888 185.906 198.311 89.3451 317.312 88.3482L317.339 88.3143C359.69 87.9119 403.369 98.8626 439.325 121.695L444.416 125.136C446.584 126.667 446.432 126.285 449.12 125.857L458.797 124.376C487.759 120.068 524.266 118.588 546.437 140.903C573.284 167.923 556.234 210.295 540.027 238.292L532.472 250.438C530.172 253.907 529.575 253.309 530.698 257.354L535.659 280.352C542.696 326.137 536.733 374.064 517.177 416.235C484.201 487.345 412.069 534.843 334.743 541.591C324.201 542.511 313.2 541.932 302.614 541.849ZM318.521 104.036C265.455 104.197 211.311 127.062 174.009 164.63L150.051 193.224C155.298 201.96 159.463 211.37 161.661 221.366C163.926 231.664 164.102 248.151 169.015 257.047C184.301 284.724 241.069 287.415 264.954 273.041C310.105 245.868 232.726 205.02 266.406 185.654C280.382 177.618 305.038 191.618 325.156 180.15C341.381 170.901 322.975 158.263 313.215 154.372C304.589 150.933 295.978 149.082 294.669 138.281C293.693 130.225 296.694 120.5 304.071 116.281C310.923 112.362 319.663 119.194 316.647 126.775C315.496 129.668 310.605 132.451 310.617 135.469C313.509 137.831 318.322 138.684 321.777 140.191C355.591 154.937 357.289 190.857 317.742 199.324C308.199 201.367 298.424 201.57 288.718 200.443C270.535 198.331 269.115 196.271 282.495 216.815C291.869 231.21 299.742 246.535 293.043 263.98C274.478 312.32 167.256 308.432 150.188 254.139C145.616 237.027 149.201 226.322 139.931 208.481C111.082 260.661 100.816 315.552 117.678 374.335C126.8 406.137 151.286 452.014 181.154 469.53L181.828 469.879C201.494 462.546 220.535 452.436 238.888 442.327L292.333 410.728C293.65 409.86 295.365 408.96 296.466 407.844C295.287 403.971 294.061 400.127 293.516 396.101C288.384 358.219 323.042 325.883 360.684 331.526C371.286 333.116 381.078 337.693 389.592 344.069C393.875 339.177 398.802 334.836 403.478 330.327L420.69 313.258C445.801 288.028 470.827 260.833 490.325 230.89C491.847 228.552 497.894 219.968 497.7 217.198C497.054 207.99 484.559 189.439 479.372 182.116C443.774 131.861 384.881 104.352 323.949 104.014C322.275 104.004 320.15 103.747 318.521 104.036ZM480.773 137.879C474.406 138.046 468.672 138.958 462.397 139.717C478.869 153.701 511.303 191.012 513.08 214.311C513.998 226.341 498.966 246.893 492.182 256.043L468.414 285.178L399.96 355.172C402.607 359.563 405.091 363.463 406.814 368.323L411.055 364.695C453.526 329.794 576.332 200.862 536.831 153.952C527.914 143.362 512.445 139.068 499.129 138.047L480.773 137.879ZM518.432 272.274L499.167 296.913L450.156 351.718C443.679 358.402 436.508 364.018 429.453 370.052L413.354 384.366C408.978 387.828 410.598 394.998 409.327 401.326C404.542 425.145 384.535 445.209 359.837 447.365C350.254 448.201 341.094 447.997 332.09 444.418C329.021 443.198 329.704 443.248 326.675 444.783C318.632 448.858 310.993 453.4 303.352 458.173L255.254 486.44L221.257 504.004C249.138 516.298 266.532 520.933 295.624 525.458L310.391 526.27C319.291 526.303 328.201 526.537 337.067 525.649C405.712 518.774 467.54 476.669 499.623 415.859L508.176 398.013C484.867 405.182 466.218 399.503 452.472 379.375C448.539 373.615 442.879 363.997 452.898 361.431C459.946 359.626 462.219 365.913 465.686 370.681C480.145 390.567 495.916 387.063 514.643 378.657L514.7 378.238C515.775 370.852 517.76 363.463 519.096 356.094C521.897 340.632 524.691 312.731 522.038 296.733L519.773 279.594C519.427 277.259 519.193 274.5 518.432 272.274ZM348.34 347.002C290.297 353.091 298.89 435.775 355.893 431.635C398.353 427.814 409.615 370.527 372.455 351.801C365.316 348.203 356.362 346.006 348.34 347.002ZM112.458 405.793C109.679 411.062 106.492 416.113 103.924 421.49C85.3653 460.36 99.8955 485.97 145.527 479.871L162.996 475.424C141.186 461.598 123.797 429.256 112.458 405.793ZM303.503 423.012C256.836 451.981 130.378 532.365 88.1806 477.943C88.6393 485.71 90.0126 490.954 94.6127 497.51C130.519 542.037 252.125 472.771 293.033 447.63L313.623 434.027C309.77 430.686 306.616 427.027 303.503 423.012Z"/>
	<path transform="scale(0.8 0.8)" d="M473.143 224.819C464.598 225.758 462.951 215.837 460.118 209.915C448.671 185.982 430.922 173.964 408.613 161.135C404.732 158.904 400.542 156.804 396.905 154.205C390.436 149.581 391.605 142.681 398.475 139.737C402.999 139.52 406.075 141.634 409.94 143.742L420.724 149.784C444.574 163.635 462.407 176.943 474.414 203.176C477.626 210.193 483.067 221.081 473.143 224.819Z"/>
</svg>
