<?xml version="1.0" encoding="utf-8" ?>
<svg xmlns="http://www.w3.org/2000/svg" xmlns:xlink="http://www.w3.org/1999/xlink" width="512" height="511">
	<path transform="scale(0.8 0.8)" d="M76.8971 404.898C84.8148 395.916 106.318 375.229 116.813 368.354C92.558 266.928 147.084 160.997 244.921 122.326C303.835 99.0401 371.874 103.667 427.144 134.469L444.263 145.013C444.861 145.412 445.831 146.528 446.543 146.244C468.488 137.5 512.027 123.744 529.974 147.328C543.876 165.596 521.309 196.137 505.594 207.987C508.698 213.791 512.186 219.415 514.993 225.372L521.656 241.401C524.964 237.347 527.833 232.994 530.769 228.669C558.329 188.078 581.018 129.005 516.49 114.904C502.185 111.778 487.106 111.536 472.558 112.943C469.231 113.265 462.888 114.266 460.253 112.008C456.657 108.927 455.35 103.782 458.793 100.059C463.438 95.0353 472.256 95.9485 478.581 95.6796C511.977 94.9626 557.886 100.26 571.012 136.45C583.989 172.229 559.921 216.136 539.87 244.364C588.327 264.841 565.472 304.418 536.063 328.522L529.106 333.829C527.395 335.026 526.394 334.78 526.256 336.918L525.909 341.785C517.925 446.279 426.398 528.239 322.5 528.373L307.5 528.255C276.032 526.522 245.767 516.981 217.985 502.365L202.502 493.327C199.369 491.441 198.735 492.123 195.083 492.916L145.802 501.356C139.239 502.033 132.683 501.957 126.094 501.962C97.6107 501.987 54.892 498.078 51.6054 461.609C49.698 440.443 63.7914 420.17 76.8971 404.898ZM541.029 262.9C539.118 261.797 532.717 259.039 530.448 259.618C530.221 259.676 526.894 266.447 526.545 267.087C510.644 296.214 489.554 320.574 463.994 341.843C458.73 346.224 453.264 351.263 447.398 354.806C440.137 359.192 436.533 353.409 430.384 350.153C409.394 339.037 385.127 350.098 379.809 373.509C383.943 371.273 389.045 367.852 393.758 367.247C401.86 366.207 405.031 375.686 399.841 381.009C395.832 385.122 388.853 387.575 383.707 390.036L327.269 416L287.663 431.716C249.932 445.937 124.609 488.499 89.8573 453.264C82.6008 445.906 79.545 436.987 79.6727 426.92L79.9216 426.564L79.6727 426.92L79.4741 427.106C77.9772 428.899 76.7576 431.517 75.6639 433.588C41.3711 498.512 136.869 487.111 171.835 480.862C188.454 477.893 204.918 473.334 221.156 468.761C284.045 451.052 347.972 425.51 405.266 394.021L498.712 335.907L515.31 323.695C532.48 310.696 569.791 282.565 541.029 262.9ZM312.414 124.075C227.624 129.675 157.834 185.448 134.804 266.754C133.194 272.441 130.925 278.843 130.81 284.753C134.178 282.116 136.594 277.526 139.191 274.117C174.018 228.42 213.545 274.592 232.808 259.407C245.57 249.347 233.304 231.774 240.908 225.606C244.832 222.424 250.275 223.944 252.792 228.014C257.068 234.927 256.27 247.012 254.245 254.536C248.534 275.755 229.591 282.923 209.481 277.344L190.073 271.832C160.512 264.616 152.906 283.263 137.609 303.412C134.333 307.729 130.37 311.801 127.839 316.592C135.558 316.927 143.331 315.994 151.094 316.295C196.751 318.067 222.351 352.216 219.772 396.681C219.231 406.011 202.904 410.935 203.224 393.32L203.178 385.941C201.795 358.775 188.711 340.61 161.171 334.252C150.317 332.048 139.057 332.409 128.153 334.152C129.977 368.098 142.698 401.117 162.331 428.676C166.731 434.853 172.628 439.875 176.825 446.065L212.605 438.732C235.681 432.926 258.16 425.183 280.409 416.794L340.467 392.034C347.939 388.487 355.227 384.541 362.877 381.378C361.864 345.722 395.254 321.993 428.739 331.663C432.497 332.748 436.155 334.232 439.716 335.844C443.688 337.642 442.531 337.641 446.075 334.891C466.855 318.772 488.616 297.685 502.915 275.501L495.336 267.863C490.676 262.907 486.069 257.697 480.481 253.76C468.99 245.664 456.65 259.024 441.406 245.062C420.819 226.206 422.282 198.07 440.628 178.106L449.331 169.639C417.92 143.343 377.806 127.325 336.937 124.285C328.842 123.683 320.537 124.022 312.414 124.075ZM489.994 151.067C480.287 151.909 471.21 154.331 462.212 158.035L493.825 190.957L496.091 193.805C514.133 176.5 535.923 149.911 492.656 150.914L489.994 151.067ZM462.235 180.45C454.06 187.645 443.532 196.666 442.817 208.437C442.269 217.458 446.033 227.56 453.438 233.067L453.844 233.374C459.911 237.797 478.966 227.419 498.515 247.376L507.959 257.572C503.498 231.492 482.662 198.042 462.235 180.45ZM508.047 350.156L462.221 378.402C463.352 392.106 460.004 407.767 450.95 418.465C435.496 436.725 408.602 439.968 389.938 424.67C387.752 422.878 387.914 421.779 385.439 423.035L344.178 442.191C312.891 455.959 280.773 467.907 248.125 478.011C239.396 480.712 230.353 484.242 221.384 485.9L230.843 490.611C254.851 502.093 280.36 509.97 307.022 511.861C394.403 518.055 479.665 460.117 503.392 374.988C505.658 366.858 507.159 358.609 508.716 350.327C508.174 350.156 508.401 350.191 508.047 350.156ZM121.237 386.719C106.708 396.546 86.9264 420.364 99.1478 438.626C105.869 448.669 119.82 449.76 130.81 449.993C134.496 449.947 154.246 450.236 156.785 448.521C144.934 434.622 135.506 417.888 127.991 401.301C125.814 396.494 124.353 391.186 122.012 386.517L121.237 386.719ZM445.004 389.844L402.501 414.332L404.808 415.344C421.287 421.507 437.585 414.859 443.649 398.057C444.409 395.952 445.727 392.212 445.229 390L445.004 389.844Z"/>
</svg>
